<?xml version="1.0" standalone="no"?>
<!DOCTYPE svg PUBLIC "-//W3C//DTD SVG 20010904//EN"
 "http://www.w3.org/TR/2001/REC-SVG-20010904/DTD/svg10.dtd">
<svg version="1.0" xmlns="http://www.w3.org/2000/svg"
 width="769.000000pt" height="551.000000pt" viewBox="0 0 769.000000 551.000000"
 preserveAspectRatio="xMidYMid meet">

<g transform="translate(0.000000,551.000000) scale(0.100000,-0.100000)"
fill="#000000" stroke="none">
<path d="M0 4231 c0 -1014 3 -1280 13 -1284 9 -4 9 -6 0 -6 -17 -1 -17 -68 0
-85 7 -7 19 -11 27 -9 13 4 13 3 1 -5 -8 -6 -20 -8 -28 -5 -8 3 -13 -2 -13
-16 0 -17 7 -21 38 -22 27 -2 30 -3 11 -6 -47 -7 -49 -27 -49 -418 l0 -364 23
-4 22 -4 -22 -2 c-13 0 -23 -8 -23 -16 0 -8 1 -15 3 -15 1 0 94 -7 205 -14
112 -8 206 -17 210 -20 3 -3 -51 -6 -119 -7 l-124 -1 65 -14 c36 -7 78 -18 94
-24 16 -5 115 -16 220 -22 115 -8 177 -15 156 -19 -19 -3 -78 -4 -132 -1 -115
6 -168 -8 -68 -18 36 -4 126 -17 200 -28 74 -12 162 -22 196 -22 34 0 90 -3
125 -7 l64 -7 -45 -7 c-25 -4 -76 -8 -115 -9 -91 -2 -57 -18 54 -26 98 -7 116
-11 134 -29 10 -9 61 -20 144 -30 146 -18 153 -19 153 -38 0 -10 -18 -11 -87
-6 -132 11 -605 30 -610 25 -2 -2 33 -7 79 -10 46 -4 173 -13 283 -21 110 -8
227 -15 260 -15 42 0 56 -3 45 -10 -13 -9 -13 -10 0 -11 8 -1 18 -1 23 0 4 0
7 -5 7 -13 0 -8 23 -31 51 -52 45 -33 59 -38 108 -38 l56 -1 6 -35 c8 -50 32
-100 78 -169 23 -33 41 -63 41 -66 0 -4 12 -22 26 -40 l26 -35 -40 -45 c-32
-36 -44 -61 -56 -115 -9 -38 -16 -78 -16 -88 0 -33 -39 -109 -64 -125 -25 -17
-52 -79 -41 -97 9 -15 -11 -13 -131 15 -127 28 -264 42 -494 50 -91 3 -242 8
-335 11 -171 7 -279 -1 -225 -16 37 -10 -77 -24 -132 -16 -91 14 -278 18 -278
7 0 -6 10 -11 23 -11 12 0 29 -5 37 -10 12 -8 9 -10 -12 -10 -15 0 -29 -4 -32
-8 -6 -11 121 -52 160 -52 17 0 53 -6 80 -14 75 -23 288 -47 346 -40 31 3 117
-3 208 -14 85 -12 245 -28 355 -37 110 -8 261 -25 335 -36 145 -21 260 -25
260 -9 0 6 12 10 26 10 14 0 24 -3 22 -7 -2 -5 -10 -21 -18 -36 -12 -25 -12
-32 2 -60 19 -40 38 -118 38 -157 0 -24 -4 -30 -22 -30 -13 0 -367 50 -788
111 -819 119 -936 132 -988 105 -32 -16 -32 -18 -32 -90 l0 -74 92 -16 c94
-16 312 -51 513 -82 61 -9 133 -22 160 -29 l50 -13 -50 -1 c-27 -1 -153 -6
-280 -11 -221 -9 -336 -3 -462 25 -21 5 -23 2 -23 -30 0 -29 4 -35 23 -36 12
0 31 -2 43 -4 11 -3 59 -12 105 -21 80 -15 481 -31 554 -22 19 2 -16 12 -97
28 -71 13 -128 27 -128 30 0 7 258 20 397 20 72 0 213 -18 513 -65 52 -8 138
-14 190 -14 l95 1 -65 9 c-122 17 -120 10 -33 94 l78 74 55 -6 c108 -12 105
-9 108 -96 l3 -77 177 0 c125 0 182 4 190 12 18 18 14 27 -10 21 -21 -5 -20
-2 7 21 35 30 20 35 -18 6 -22 -18 -26 -18 -31 -4 -4 9 0 27 9 40 20 31 20 51
1 35 -21 -18 -33 25 -13 47 18 22 28 62 15 62 -6 0 -8 6 -5 13 19 47 19 47 3
41 -9 -3 -16 -1 -16 4 0 6 9 14 20 17 11 3 25 15 31 26 10 19 9 20 -19 5 -29
-15 -29 -15 -24 10 2 13 8 27 13 30 5 3 -5 17 -22 31 -21 18 -27 29 -20 36 18
18 13 25 -14 19 -20 -3 -25 0 -25 17 0 38 38 46 157 34 58 -6 110 -16 117 -23
7 -7 12 -91 14 -255 l3 -245 36 0 35 0 -7 38 c-15 79 -5 354 15 427 5 17 11
47 15 68 3 20 9 37 13 37 9 0 32 -103 32 -143 0 -15 4 -35 9 -45 6 -9 18 -42
27 -71 26 -83 64 -161 79 -161 9 0 5 21 -15 78 -52 141 -90 320 -90 418 0 34
7 61 24 88 22 37 23 38 29 15 4 -13 7 -41 7 -61 0 -21 5 -38 11 -38 6 0 9 7 6
15 -4 8 -2 17 2 19 5 3 11 -16 15 -42 7 -56 34 -143 48 -157 7 -7 8 13 2 60
-12 95 -9 271 5 301 6 13 16 35 23 49 8 18 14 22 20 13 5 -9 8 -7 9 7 0 11 3
14 6 8 2 -7 9 -13 14 -13 10 0 3 55 -16 123 -27 92 -17 365 14 375 16 5 13 34
-6 73 -14 26 -18 61 -19 154 -1 66 -6 185 -11 265 -8 112 -7 152 3 175 8 19 9
36 3 46 -5 10 -7 46 -5 80 l4 64 -19 -24 c-10 -13 -19 -32 -19 -42 0 -10 -7
-19 -15 -19 -8 0 -15 -6 -16 -12 0 -7 -5 -2 -11 12 -5 14 -11 124 -13 245 -2
121 -5 229 -8 240 -11 61 -27 85 -54 85 -9 0 -13 -18 -13 -57 0 -32 -7 -89
-15 -128 -9 -38 -16 -123 -17 -188 -1 -65 -5 -120 -9 -123 -14 -8 -52 169 -68
316 -8 72 -5 90 15 90 13 0 15 19 4 30 -3 3 -11 17 -17 31 -12 28 -47 40 -79
28 -17 -7 -16 -8 6 -8 19 -1 21 -4 11 -10 -8 -5 -21 -7 -29 -3 -8 3 -21 -3
-28 -13 -8 -10 -16 -16 -19 -14 -10 10 135 167 183 198 62 40 149 74 180 73
14 -1 21 2 16 9 -4 8 -1 8 12 2 11 -5 55 -11 99 -12 72 -2 82 -5 98 -27 25
-32 97 -74 129 -74 13 0 62 -21 109 -46 77 -41 109 -53 192 -69 15 -3 31 -13
34 -23 3 -9 40 -87 81 -172 116 -239 124 -269 75 -270 -7 0 -28 -10 -46 -22
-19 -13 -43 -28 -53 -34 -30 -18 -10 -27 57 -25 45 1 65 6 74 18 15 20 35 9
35 -18 0 -11 -4 -18 -9 -15 -12 8 -31 -17 -37 -48 -3 -17 1 -28 10 -32 17 -7
41 -63 51 -121 4 -24 11 -46 16 -49 6 -4 9 -72 7 -172 -3 -146 -1 -170 15
-192 9 -13 17 -36 17 -50 0 -32 24 -68 34 -52 4 6 13 9 21 5 11 -4 14 0 9 13
-5 18 -5 18 6 0 9 -13 9 -20 2 -25 -8 -5 -7 -25 3 -66 8 -33 17 -71 20 -85 2
-14 29 -58 60 -97 30 -40 55 -75 55 -78 0 -7 56 -56 80 -70 10 -5 42 -32 72
-60 30 -27 77 -69 104 -92 27 -24 100 -88 162 -144 116 -102 192 -149 248
-149 30 0 250 104 284 135 9 8 26 15 38 15 13 0 22 6 22 15 0 8 7 15 15 15 12
0 13 -4 6 -17 -9 -18 -14 -60 -12 -98 1 -15 8 -8 26 23 15 27 24 56 22 75 -2
28 1 32 25 35 32 4 36 -9 65 -178 14 -83 18 -157 17 -353 -1 -136 1 -245 4
-242 3 3 4 34 3 69 l-2 64 35 6 c19 4 37 12 39 19 6 16 -4 139 -13 152 -3 6
-4 39 0 75 6 59 7 62 16 35 5 -16 8 -130 7 -252 l-1 -223 169 0 c102 0 169 4
169 10 0 5 7 7 15 4 8 -4 15 -1 15 5 0 6 -4 11 -10 11 -5 0 -10 5 -10 11 0 6
7 8 16 5 11 -4 15 -2 11 8 -3 8 -1 16 4 18 6 2 -1 16 -15 31 -24 26 -23 40 2
15 9 -9 12 -8 12 5 0 10 5 14 14 11 10 -4 13 0 11 13 -2 10 -4 22 -4 26 -1 5
-5 5 -11 2 -5 -3 -10 -5 -10 -3 0 2 -4 18 -10 36 -7 27 -6 33 4 29 19 -8 28 3
16 18 -8 9 -3 17 17 30 22 15 24 19 12 29 -9 6 -18 19 -22 28 -4 13 -1 16 13
13 30 -6 35 14 10 37 -15 15 -19 23 -11 31 6 6 11 20 11 32 0 16 2 17 10 5 8
-13 10 -12 10 3 0 9 -4 17 -9 17 -5 0 -8 8 -7 17 0 10 -5 17 -11 15 -7 -1 -13
2 -13 8 0 5 11 10 25 10 17 0 33 -12 55 -43 77 -107 104 -153 104 -184 1 -37
10 -42 25 -14 8 14 3 30 -24 72 -18 30 -44 72 -56 94 -11 22 -31 51 -43 64
l-21 23 40 -6 c26 -4 54 -2 80 8 l40 15 -85 0 c-82 1 -277 30 -253 38 6 2 48
-3 93 -11 150 -29 137 -15 -20 21 -85 19 -167 37 -182 40 -16 3 -28 9 -28 13
0 15 29 19 64 9 24 -7 77 -6 163 2 71 6 159 12 196 14 37 1 71 5 74 9 7 7 -34
9 -122 7 -37 -1 -55 1 -47 7 37 25 -136 57 -262 49 l-91 -6 59 24 c33 14 89
30 125 36 68 11 265 68 259 75 -2 2 -28 -3 -58 -11 -30 -7 -73 -16 -95 -19
l-40 -5 55 30 c30 16 46 27 35 23 -51 -17 -92 -25 -120 -25 -60 1 -73 5 -67
19 3 10 -3 13 -24 12 -16 -1 -42 -2 -59 -1 -26 1 -28 3 -14 16 20 20 170 71
239 80 44 7 50 10 30 15 -23 6 -22 7 20 23 25 9 65 21 89 27 23 6 41 13 38 16
-6 6 -168 -35 -182 -46 -13 -10 -130 -40 -158 -40 -13 0 7 14 48 36 39 20 77
43 85 51 9 9 -1 7 -28 -7 -24 -12 -46 -19 -49 -16 -3 3 -12 -2 -20 -10 -9 -8
-22 -13 -29 -10 -7 3 -16 1 -19 -5 -9 -14 -27 1 -21 17 4 10 0 14 -11 12 -9
-2 -18 4 -20 12 -4 13 -3 13 6 0 9 -13 11 -13 11 3 0 11 -8 17 -23 17 -55 0
-37 39 33 75 28 14 50 29 50 34 0 5 3 18 7 28 6 16 5 16 -10 4 -22 -18 -122
-24 -107 -6 5 6 8 14 5 17 -3 3 3 13 14 22 26 23 17 54 -15 50 -30 -3 -31 11
-2 27 23 12 57 49 58 61 0 4 -11 3 -24 -2 -13 -5 -26 -7 -29 -4 -2 2 -25 -4
-50 -15 -50 -21 -72 -13 -34 12 31 22 107 93 107 100 0 4 -13 4 -30 1 -32 -7
-60 8 -60 32 0 8 7 14 15 14 8 0 15 7 15 15 0 8 -3 15 -7 15 -5 0 -8 13 -8 29
0 20 4 27 14 23 10 -4 12 1 7 16 -5 15 -2 22 11 25 10 3 -4 5 -32 6 l-50 2 28
24 c28 25 35 45 15 45 -6 0 -4 7 5 18 19 21 13 34 -10 25 -12 -5 -14 -1 -8 18
4 13 12 25 16 27 5 2 9 8 9 13 0 19 -16 7 -44 -32 -15 -22 -30 -38 -33 -35 -6
5 28 69 39 74 9 4 -1 31 -22 59 -16 21 -17 20 -29 -40 -7 -34 -14 -82 -16
-107 -14 -176 -109 -530 -142 -530 -7 0 -13 -5 -13 -11 0 -6 10 -9 23 -7 20 4
27 -3 45 -41 32 -67 35 -128 8 -168 -23 -37 -29 -39 -44 -20 -8 10 -8 24 -1
51 8 29 7 46 -3 70 -7 17 -12 36 -10 42 1 7 -4 14 -12 17 -8 3 -17 28 -21 59
-4 29 -14 70 -21 90 -13 37 -13 38 7 27 19 -10 20 -9 5 18 -8 15 -31 43 -50
62 -20 19 -36 38 -36 42 0 5 -6 9 -13 9 -7 0 -53 55 -104 123 -162 217 -190
247 -286 301 -76 42 -104 66 -79 66 12 0 106 -51 117 -64 6 -6 37 -33 70 -60
66 -55 101 -89 158 -156 45 -53 39 -36 -14 36 -50 69 -147 156 -246 220 -44
30 -84 54 -87 54 -4 0 -30 17 -59 38 -97 72 -138 85 -192 60 -22 -10 -28 -9
-36 3 -13 21 -11 39 6 39 8 0 15 6 15 13 0 23 -22 35 -54 30 -26 -4 -35 0 -55
28 -13 17 -19 29 -12 25 6 -4 11 -5 11 -2 0 3 -10 10 -21 17 -17 8 -20 8 -14
-1 5 -8 2 -10 -11 -7 -11 4 -31 9 -46 13 -16 3 -28 10 -28 15 0 5 -4 9 -9 9
-5 0 -14 -23 -20 -51 -7 -31 -20 -58 -34 -69 -22 -18 -37 -18 -37 1 0 6 4 8 9
5 12 -8 23 38 15 59 -5 12 3 25 22 41 21 16 24 23 13 24 -11 0 -18 13 -23 40
-3 22 -11 40 -16 40 -6 0 -16 12 -22 28 -7 15 -20 39 -31 54 -10 16 -15 32
-12 38 9 15 -8 12 -33 -6 -12 -8 -22 -11 -22 -5 0 5 9 13 21 16 14 5 18 12 13
23 -4 10 -13 34 -20 54 -7 20 -34 74 -59 119 -52 95 -64 129 -43 129 7 0 30
11 51 26 34 23 40 24 72 12 33 -11 36 -11 53 12 9 14 16 28 14 33 -1 4 4 7 12
7 7 0 16 9 19 20 3 11 0 20 -5 20 -6 0 -5 6 2 15 14 17 40 20 40 5 0 -5 -4
-10 -10 -10 -5 0 -10 -4 -10 -10 0 -16 19 -12 41 9 12 11 30 17 42 15 12 -2
16 -2 10 2 -25 11 -13 24 23 24 21 0 47 8 61 20 20 15 22 20 9 20 -10 0 -14 5
-10 11 3 6 0 15 -7 20 -10 6 -11 9 -1 9 6 0 12 11 12 24 0 19 10 28 50 45 28
12 48 26 45 31 -4 6 -1 10 5 10 12 0 113 97 166 160 21 25 35 37 31 28 -3 -10
-9 -39 -13 -66 -6 -47 -6 -48 30 -65 20 -9 47 -17 59 -17 12 0 31 -7 41 -15
27 -20 31 -19 34 8 1 12 22 128 47 257 26 129 55 280 65 335 10 55 30 163 45
240 15 77 33 172 40 210 7 39 25 131 39 205 28 145 57 296 81 425 8 44 29 152
45 240 33 170 56 302 63 348 l4 28 -144 -2 c-126 -1 -144 -3 -138 -16 5 -14 3
-14 -11 -2 -15 12 -64 25 -64 16 0 -2 15 -37 34 -78 32 -72 48 -119 40 -119
-2 0 -11 17 -19 37 -12 29 -18 34 -25 23 -7 -11 -11 -11 -24 -1 -8 7 -24 10
-36 6 -16 -5 -20 -2 -20 15 0 16 -5 20 -15 16 -11 -4 -15 1 -15 19 0 27 -16
42 -23 23 -3 -7 -4 3 -1 22 2 19 2 29 -2 23 -8 -18 -27 -16 -20 2 3 8 1 15 -3
15 -5 0 -12 -6 -14 -12 -4 -10 -6 -10 -6 0 -1 6 -10 12 -21 12 -18 0 -16 -6
18 -52 67 -91 170 -268 156 -268 -3 0 -1 -7 6 -15 11 -13 10 -14 -4 -9 -9 3
-16 13 -16 20 0 8 -11 20 -25 26 -14 6 -24 16 -23 22 4 28 -13 42 -50 39 -20
-1 -29 0 -19 3 9 3 17 9 17 14 0 17 -12 40 -22 40 -5 0 -7 -4 -4 -9 3 -4 -7
-8 -22 -7 -15 1 -25 6 -22 11 2 6 11 9 18 7 9 -2 12 4 10 15 -2 12 -12 18 -31
18 -16 0 -34 8 -42 19 -8 10 -18 15 -23 12 -12 -7 -25 22 -16 35 3 6 -6 7 -23
3 -26 -7 -27 -6 -13 12 14 18 14 18 -3 5 -13 -10 -15 -17 -6 -27 6 -8 8 -14 3
-14 -5 0 -17 14 -26 30 -9 17 -13 30 -8 30 6 0 10 -5 10 -11 0 -5 5 -7 11 -3
8 4 5 11 -9 18 -11 6 -22 15 -24 21 -2 5 -24 11 -50 13 l-47 3 88 -90 c127
-129 317 -389 298 -407 -9 -9 -27 6 -27 22 0 8 -4 13 -9 10 -5 -3 -16 5 -25
19 -9 14 -22 22 -30 19 -19 -7 -32 16 -15 27 10 6 8 12 -10 28 -30 26 -35 26
-20 0 11 -21 11 -21 -14 -3 -14 11 -31 29 -38 42 -7 12 -21 22 -31 22 -13 0
-17 -4 -12 -12 4 -7 4 -10 -1 -6 -4 4 -15 2 -24 -4 -13 -10 -14 -10 -3 2 18
21 15 37 -9 43 -15 4 -20 11 -16 21 4 9 2 16 -3 16 -5 0 -25 16 -43 36 -27 29
-38 35 -56 29 -14 -4 -20 -12 -17 -21 3 -8 1 -14 -4 -14 -13 0 -13 27 0 35 20
12 -3 35 -36 35 -19 0 -34 4 -34 9 0 5 9 7 20 4 11 -3 20 0 20 6 0 6 -6 11
-14 11 -17 0 -28 37 -12 44 6 2 -6 2 -26 -1 -42 -6 -98 5 -80 16 7 4 4 11 -10
20 -18 11 -20 11 -15 -3 4 -10 1 -13 -9 -9 -7 3 -14 15 -14 28 0 20 -5 23 -47
23 -47 1 -48 1 -27 -16 68 -54 365 -317 400 -353 40 -42 174 -206 174 -213 0
-1 -20 -4 -45 -4 -36 -2 -46 2 -56 19 -6 12 -9 29 -6 39 3 12 -1 17 -17 16
-11 -1 -26 5 -33 14 -12 16 -8 30 8 30 6 0 7 -5 3 -12 -4 -7 -3 -8 5 -4 22 14
0 26 -39 21 -26 -3 -40 -1 -40 6 0 6 7 8 16 5 10 -4 14 -1 12 6 -3 7 -17 14
-31 16 -30 4 -35 17 -11 30 11 6 13 11 5 16 -6 4 -11 1 -11 -6 -1 -8 -8 -4
-19 9 -12 14 -22 18 -31 13 -15 -10 -55 27 -63 57 -3 11 -5 6 -6 -12 -1 -16
-5 -25 -9 -19 -4 6 -15 13 -25 17 -13 5 -16 13 -11 34 7 25 6 27 -9 14 -10 -7
-17 -9 -17 -3 0 5 -16 17 -36 27 -23 11 -34 22 -30 31 3 9 -1 14 -14 14 -19 0
-36 32 -25 50 4 6 -5 7 -25 4 -26 -6 -29 -4 -23 11 4 12 3 16 -4 12 -6 -4 -23
5 -39 18 -16 14 -37 25 -46 25 -11 0 -15 5 -12 15 4 9 0 15 -10 15 -9 0 -16
-7 -16 -15 0 -9 -6 -12 -15 -9 -8 4 -15 13 -15 21 0 20 -25 43 -47 43 -13 0
-14 3 -5 8 7 5 -94 9 -223 11 -129 1 -235 0 -235 -2 0 -4 97 -89 260 -227 375
-318 393 -335 363 -338 -15 -2 -34 -9 -42 -15 -11 -9 -13 -9 -8 -1 8 14 -20
27 -35 17 -7 -3 -8 -1 -4 5 4 7 3 12 -2 12 -6 0 -8 10 -5 23 4 20 3 20 -7 4
-11 -18 -12 -18 -25 -1 -7 10 -11 24 -8 31 5 13 -2 16 -46 17 -17 1 -25 8 -28
25 -3 20 -1 22 12 11 10 -9 15 -9 15 -1 0 10 -13 15 -31 13 -4 -1 -17 10 -29
23 -24 25 -47 34 -34 13 4 -7 3 -8 -5 -4 -6 4 -9 12 -6 17 11 17 -6 31 -21 18
-11 -9 -18 -6 -34 12 -11 13 -17 30 -15 36 2 7 1 12 -3 11 -26 -8 -71 18 -102
56 -19 25 -47 47 -62 51 -14 3 -36 15 -49 26 -18 16 -19 19 -5 19 26 0 10 18
-22 25 -16 3 -35 18 -45 35 -21 35 -45 60 -57 60 -16 0 0 -27 23 -38 21 -11
21 -11 -3 -7 -14 2 -31 4 -37 4 -7 1 -13 12 -13 26 0 27 -9 32 -28 13 -9 -9
-12 -8 -12 6 0 9 -4 14 -10 11 -5 -3 -10 -2 -10 4 0 5 -26 9 -60 8 -32 -1 -54
-5 -47 -9 9 -6 9 -8 0 -8 -6 0 -15 5 -18 10 -4 7 -485 10 -1411 10 l-1404 0 0
-1279z m2879 1247 c14 -19 5 -23 -18 -9 -7 5 -10 14 -6 21 4 6 8 10 9 8 1 -2
8 -11 15 -20z m668 2 c4 -15 11 -19 26 -14 17 5 18 4 6 -8 -10 -12 -18 -13
-31 -5 -19 12 -31 47 -16 47 5 0 12 -9 15 -20z m-39 -37 c69 -59 65 -55 297
-255 105 -89 210 -179 234 -198 25 -19 39 -36 31 -38 -15 -5 -61 18 -55 29 3
4 -4 5 -15 2 -14 -4 -19 -1 -15 8 7 19 -41 73 -56 63 -7 -4 -9 -3 -6 3 7 10
-52 60 -66 55 -5 -1 -6 1 -3 6 3 4 -9 19 -26 33 -17 13 -42 37 -56 52 -16 17
-32 25 -41 22 -9 -3 -12 -3 -9 1 9 8 -10 28 -36 37 -10 4 -16 10 -13 13 7 8
-54 60 -66 56 -5 -1 -6 2 -2 8 3 5 1 10 -4 10 -6 0 -23 13 -37 30 -15 16 -30
27 -34 25 -4 -3 -16 6 -26 20 -10 13 -22 21 -27 18 -6 -4 -7 -1 -2 7 6 10 4
12 -9 7 -10 -4 -15 -3 -11 3 3 6 1 10 -4 10 -6 0 -11 5 -11 10 0 17 10 12 68
-37z m96 -9 c3 -8 2 -12 -4 -9 -6 3 -10 10 -10 16 0 14 7 11 14 -7z m-689 -4
c3 -5 1 -10 -4 -10 -6 0 -11 5 -11 10 0 6 2 10 4 10 3 0 8 -4 11 -10z m1035
-26 c0 -2 -9 0 -20 6 -11 6 -20 13 -20 16 0 2 9 0 20 -6 11 -6 20 -13 20 -16z
m-940 7 c0 -5 -8 -11 -17 -15 -10 -3 -25 -9 -33 -12 -8 -3 -4 4 10 15 27 22
40 26 40 12z m981 -18 c-12 -20 -14 -14 -5 12 4 9 9 14 11 11 3 -2 0 -13 -6
-23z m-235 -50 c-10 -10 -19 5 -10 18 6 11 8 11 12 0 2 -7 1 -15 -2 -18z m774
7 c-19 -13 -30 -13 -30 0 0 6 10 10 23 10 18 0 19 -2 7 -10z m-470 -8 c0 -13
-12 -22 -22 -16 -10 6 -1 24 13 24 5 0 9 -4 9 -8z m60 -42 c0 -5 -5 -10 -11
-10 -5 0 -7 5 -4 10 3 6 8 10 11 10 2 0 4 -4 4 -10z m5 -48 c-3 -3 -11 0 -18
7 -9 10 -8 11 6 5 10 -3 15 -9 12 -12z m155 -88 c0 -8 -4 -12 -10 -9 -5 3 -10
10 -10 16 0 5 5 9 10 9 6 0 10 -7 10 -16z m-185 -43 c3 -5 2 -12 -3 -15 -5 -3
-9 1 -9 9 0 17 3 19 12 6z m49 -143 c-4 -6 0 -14 7 -19 10 -6 8 -9 -8 -9 -24
0 -27 7 -17 34 3 9 10 13 15 10 5 -3 6 -10 3 -16z m61 -27 c-3 -6 -11 -11 -16
-11 -5 0 -4 6 3 14 14 16 24 13 13 -3z m53 -64 c2 -12 -1 -15 -12 -11 -21 8
-28 33 -8 30 9 -2 18 -10 20 -19z m-158 -11 c0 -3 -4 -8 -10 -11 -5 -3 -10 -1
-10 4 0 6 5 11 10 11 6 0 10 -2 10 -4z m-135 -26 c3 -5 1 -10 -4 -10 -6 0 -11
5 -11 10 0 6 2 10 4 10 3 0 8 -4 11 -10z m70 -30 c3 -5 -3 -10 -14 -10 -11 0
-23 5 -26 10 -3 6 3 10 14 10 11 0 23 -4 26 -10z m-2420 -10 c3 -5 2 -10 -4
-10 -5 0 -13 5 -16 10 -3 6 -2 10 4 10 5 0 13 -4 16 -10z m2448 -20 c-3 -11
-9 -20 -13 -20 -5 0 -6 9 -3 20 3 11 9 20 13 20 5 0 6 -9 3 -20z m-33 -24 c0
-11 -19 -15 -25 -6 -3 5 1 10 9 10 9 0 16 -2 16 -4z m210 -316 c0 -5 -7 -10
-16 -10 -8 0 -12 5 -9 10 3 6 10 10 16 10 5 0 9 -4 9 -10z m-30 -30 c5 0 11
-8 13 -17 4 -14 5 -14 6 3 1 20 38 41 49 29 8 -8 -20 -65 -32 -65 -6 0 -4 -5
4 -10 13 -8 12 -10 -2 -10 -10 0 -18 -4 -18 -10 0 -17 18 -11 34 12 22 30 30
17 11 -18 -8 -16 -15 -33 -15 -37 0 -12 69 75 76 96 9 24 21 21 30 -5 4 -13
14 -30 23 -38 20 -18 57 -75 44 -67 -16 10 -14 -64 4 -140 9 -40 14 -75 11
-79 -11 -10 -79 19 -74 32 8 21 -24 54 -53 54 -15 0 -43 8 -62 17 -40 20 -67
26 -129 27 -25 1 -48 6 -52 11 -5 6 -8 6 -8 -1 0 -7 -9 -14 -20 -17 -22 -6
-27 -45 -10 -77 9 -16 7 -17 -17 -11 -24 6 -27 13 -30 51 -3 49 -19 73 -32 52
-7 -11 -11 -11 -23 2 -9 8 -22 17 -29 18 -22 5 -37 22 -31 37 4 10 1 12 -8 6
-8 -5 -1 8 15 29 17 22 34 35 42 32 8 -3 12 -2 8 3 -7 12 61 54 78 48 7 -4 6
-6 -4 -6 -9 -1 -19 -8 -23 -16 -6 -17 9 -21 19 -5 4 6 10 8 13 6 4 -2 26 9 50
25 23 15 41 23 39 17 -4 -21 24 -20 30 1 3 12 10 21 15 21 17 0 -3 -45 -33
-72 -16 -16 -39 -28 -51 -28 -20 0 -21 1 -3 20 21 23 13 40 -8 19 -34 -35 -22
-67 21 -52 10 4 4 -9 -18 -33 -19 -22 -9 -15 23 16 33 31 69 79 85 110 17 35
28 49 30 37 2 -9 7 -17 12 -17z m-175 -462 c18 -50 43 -98 64 -120 43 -48 37
-73 -15 -63 -27 5 -41 2 -55 -11 -11 -9 -21 -15 -23 -13 -2 2 -16 24 -31 48
-26 42 -27 50 -23 132 6 95 11 109 37 109 12 0 25 -22 46 -82z m499 46 c9 -3
16 -13 16 -21 0 -8 -4 -12 -9 -9 -4 3 -16 -3 -26 -14 -13 -14 -15 -27 -10 -47
12 -47 6 -119 -15 -166 -15 -33 -17 -51 -11 -75 11 -36 -13 -68 -39 -52 -22
14 -30 12 -30 -6 0 -9 -6 -14 -13 -11 -8 3 -13 -2 -13 -15 1 -13 -10 -24 -31
-33 l-31 -13 9 31 c11 38 2 49 -18 22 -8 -11 -19 -19 -24 -17 -5 1 -9 -2 -9
-8 0 -5 -5 -10 -10 -10 -12 0 -10 59 2 66 4 3 8 17 8 32 0 25 1 25 15 6 14
-18 14 -18 15 4 0 22 -25 70 -44 84 -18 12 14 64 50 81 26 13 41 31 59 69 24
52 39 68 64 68 11 0 12 -11 7 -52 -18 -131 -22 -180 -14 -184 4 -3 10 8 13 23
4 15 11 36 16 46 5 9 10 55 10 101 2 85 3 88 46 105 1 1 8 -2 17 -5z m-413
-151 c13 -16 12 -17 -3 -4 -17 13 -22 21 -14 21 2 0 10 -8 17 -17z m-241 -8
c0 -8 -4 -15 -9 -15 -5 0 -11 7 -15 15 -3 9 0 15 9 15 8 0 15 -7 15 -15z m250
-125 c20 -14 37 -19 54 -14 16 4 26 2 26 -5 0 -6 -5 -11 -10 -11 -6 0 -10 -7
-8 -16 3 -14 -12 -17 -99 -19 -94 -2 -103 -1 -103 16 0 12 -5 16 -15 13 -8 -4
-15 -1 -15 5 0 10 48 16 114 13 23 -1 27 2 23 19 -6 24 -2 24 33 -1z m-2451
-42 c6 -18 7 -28 2 -23 -10 12 -25 55 -18 55 3 0 10 -15 16 -32z m348 -30 c-3
-7 -5 -2 -5 12 0 14 2 19 5 13 2 -7 2 -19 0 -25z m2053 -34 c0 -12 7 -14 30
-10 17 3 43 8 59 12 21 4 30 1 35 -12 8 -22 -3 -84 -16 -84 -6 0 -7 -11 -4
-25 5 -19 2 -25 -9 -25 -12 0 -15 -6 -10 -20 3 -11 2 -20 -3 -20 -5 0 -15 -13
-22 -30 -7 -16 -16 -28 -20 -25 -4 3 -12 -1 -18 -8 -14 -17 -72 -21 -72 -5 0
6 -3 8 -7 5 -3 -4 -13 3 -21 15 -13 18 -13 23 -2 26 7 3 29 20 49 38 30 28 34
35 21 44 -8 5 -25 10 -38 10 -12 0 -25 7 -28 15 -5 13 -9 13 -22 3 -13 -11
-14 -11 -8 0 5 9 -2 17 -23 25 -17 6 -31 15 -31 19 0 5 -12 13 -27 19 -25 9
-26 10 -7 23 10 7 43 14 73 15 30 0 56 3 59 6 3 3 18 5 34 5 19 0 28 -5 28
-16z m287 -106 c-3 -8 -6 -5 -6 6 -1 11 2 17 5 13 3 -3 4 -12 1 -19z m-992
-71 c19 -34 25 -57 25 -106 0 -57 -3 -64 -32 -92 -43 -40 -157 -108 -186 -111
l-23 -3 1 169 c0 93 3 173 6 178 3 4 45 8 94 8 l89 0 26 -43z m565 -31 c0 -2
-3 -11 -6 -20 -9 -23 -24 -20 -24 4 0 11 7 20 15 20 8 0 15 -2 15 -4z m-1200
-406 c0 -5 -10 -10 -22 -10 -19 0 -20 2 -8 10 19 13 30 13 30 0z m-2637 -57
c-13 -2 -35 -2 -50 0 -16 2 -5 4 22 4 28 0 40 -2 28 -4z m-36 -39 c-3 -3 -12
-4 -19 -1 -8 3 -5 6 6 6 11 1 17 -2 13 -5z m50 0 c-3 -3 -12 -4 -19 -1 -8 3
-5 6 6 6 11 1 17 -2 13 -5z m50 0 c-3 -3 -12 -4 -19 -1 -8 3 -5 6 6 6 11 1 17
-2 13 -5z m617 -96 c-1 -10 2 -18 7 -18 16 0 9 -34 -11 -60 -22 -29 -26 -56
-7 -63 6 -3 -11 -6 -40 -6 -51 -1 -52 -1 -55 32 -3 31 -4 32 -48 28 -26 -2
-50 -10 -57 -20 -11 -14 -12 -14 -13 6 0 15 -5 21 -14 17 -10 -4 -13 3 -11 26
1 17 5 33 8 36 3 3 39 5 81 5 58 0 76 3 76 14 0 17 17 24 55 22 22 -1 30 -7
29 -19z m116 -8 c0 -5 25 -10 55 -10 l55 0 0 -69 c0 -64 -1 -69 -20 -64 -17 5
-20 0 -20 -31 0 -20 -5 -36 -11 -36 -5 0 -9 10 -7 23 3 20 -2 22 -49 25 -29 2
-53 7 -53 13 0 5 4 9 9 9 13 0 -3 72 -23 102 -10 15 -15 32 -11 38 8 13 75 13
75 0z m1437 -22 c-3 -8 -6 -5 -6 6 -1 11 2 17 5 13 3 -3 4 -12 1 -19z m-2291
-25 c-10 -10 -19 5 -10 18 6 11 8 11 12 0 2 -7 1 -15 -2 -18z m3554 -7 c0 -2
-8 -10 -17 -17 -16 -13 -17 -12 -4 4 13 16 21 21 21 13z m-1170 -20 c0 -8 -4
-17 -9 -20 -10 -7 -23 19 -14 28 11 11 23 6 23 -8z m-80 -26 c0 -5 -5 -10 -11
-10 -5 0 -7 5 -4 10 3 6 8 10 11 10 2 0 4 -4 4 -10z m95 -20 c4 -6 -6 -10 -22
-9 -25 0 -26 1 -8 9 11 5 21 9 22 9 1 1 5 -3 8 -9z m-195 -57 c0 -5 -10 -19
-21 -33 l-21 -25 18 33 c18 32 24 38 24 25z m125 -23 c3 -5 1 -10 -4 -10 -6 0
-11 5 -11 10 0 6 2 10 4 10 3 0 8 -4 11 -10z m5 -60 c0 -5 -8 -10 -17 -10 -15
0 -16 2 -3 10 19 12 20 12 20 0z m10 -102 c0 -85 16 -180 44 -262 9 -26 16
-68 15 -94 -1 -38 -2 -42 -9 -22 -4 14 -24 61 -44 105 -33 71 -37 90 -42 188
-3 71 -1 113 6 122 6 7 10 17 9 21 -3 16 1 24 11 24 6 0 10 -34 10 -82z m-492
52 c-1 -3 2 -13 7 -23 13 -30 -3 -32 -31 -4 -15 15 -31 24 -37 20 -6 -3 -7 -1
-3 6 7 11 66 12 64 1z m12 -70 c0 -5 -4 -10 -10 -10 -5 0 -10 5 -10 10 0 6 5
10 10 10 6 0 10 -4 10 -10z m-1096 -22 c-3 -4 -11 -5 -19 -1 -21 7 -19 12 4
10 11 0 18 -5 15 -9z m-552 -68 c-3 -26 -9 -40 -19 -40 -11 0 -14 -14 -13 -57
1 -72 -10 -143 -22 -143 -5 0 -8 -10 -6 -22 2 -15 -3 -24 -14 -26 -14 -3 -16
3 -13 30 5 37 15 216 15 266 0 30 2 32 38 32 l38 0 -4 -40z m368 -2 c0 -5 -15
-8 -34 -8 -41 0 -51 -12 -36 -40 15 -28 -4 -63 -31 -55 -14 5 -17 3 -13 -10 4
-8 14 -14 23 -13 24 4 28 -68 5 -93 -16 -18 -16 -20 -1 -32 13 -10 15 -25 10
-80 l-6 -68 -46 3 -46 3 1 85 c0 47 4 138 8 202 l8 118 79 -3 c43 -1 79 -5 79
-9z m1440 -2 c0 -3 -4 -8 -10 -11 -5 -3 -10 -1 -10 4 0 6 5 11 10 11 6 0 10
-2 10 -4z m-1375 -16 c17 -7 15 -9 -12 -9 -18 -1 -33 4 -33 9 0 12 17 12 45 0z
m273 -15 c9 -3 7 -10 -8 -25 -11 -11 -17 -26 -14 -35 4 -10 0 -15 -10 -15 -9
0 -16 -4 -16 -10 0 -5 5 -10 10 -10 6 0 10 -13 10 -30 0 -25 -5 -31 -32 -39
-31 -9 -31 -9 -7 -10 21 -1 27 -6 27 -26 0 -25 -1 -25 -19 -9 -16 14 -19 15
-19 2 0 -8 11 -20 25 -26 32 -15 29 -54 -6 -62 -16 -4 -20 -8 -11 -14 6 -4 17
-4 22 -1 6 3 10 -3 10 -14 0 -10 -6 -21 -12 -24 -10 -3 -10 -7 -2 -18 6 -8 11
-31 11 -52 l1 -37 -56 4 c-32 2 -65 5 -74 5 -26 1 -22 29 5 34 18 3 17 5 -7 6
l-29 1 7 83 c4 45 10 128 12 185 5 106 2 115 -38 138 -17 9 191 8 220 -1z
m338 -35 c113 0 144 -3 160 -16 10 -8 14 -13 8 -10 -6 3 -22 -1 -37 -9 -14 -7
-29 -10 -33 -7 -5 4 -3 0 3 -8 6 -8 10 -44 9 -80 l-1 -65 -32 1 c-18 1 -33 -3
-33 -8 0 -5 -9 -4 -20 2 -18 10 -20 8 -20 -17 0 -17 3 -23 8 -16 9 15 77 12
93 -4 7 -7 8 -18 2 -29 -4 -11 -8 -70 -8 -131 l0 -113 -57 0 c-31 0 -60 5 -64
11 -3 6 -19 9 -35 5 -22 -4 -31 -1 -39 14 -6 11 -6 21 -1 25 6 3 6 17 -1 36
-6 19 -9 67 -6 118 4 67 3 78 -4 51 -6 -19 -10 -52 -9 -72 0 -32 -3 -38 -19
-38 -16 0 -20 7 -20 35 0 19 5 35 10 35 6 0 10 18 10 40 0 28 -4 40 -14 40 -8
0 -17 7 -20 16 -3 8 -2 13 3 10 10 -6 24 53 18 75 -2 8 -2 11 0 7 8 -13 23 -9
23 6 0 8 -7 16 -15 20 -11 4 -14 13 -9 32 6 22 4 26 -9 21 -9 -3 -18 -1 -20 6
-2 7 -7 9 -11 6 -4 -4 0 -14 9 -22 22 -23 18 -37 -11 -37 -14 0 -23 4 -19 10
3 5 3 20 -1 34 -5 21 -9 24 -24 16 -11 -6 -21 -6 -24 -1 -3 5 -15 7 -26 4 -12
-3 -20 0 -20 7 0 10 19 11 83 7 45 -4 145 -7 223 -7z m-659 -22 c-3 -8 -6 -5
-6 6 -1 11 2 17 5 13 3 -3 4 -12 1 -19z m1600 -40 c-2 -13 -4 -5 -4 17 -1 22
1 32 4 23 2 -10 2 -28 0 -40z m-1220 17 c-9 -21 -37 -19 -37 3 0 14 2 15 10 2
8 -12 10 -12 16 3 3 10 9 16 11 13 3 -3 3 -12 0 -21z m-417 0 c0 -1 -6 -7 -13
-13 -10 -8 -13 -6 -14 8 -1 13 3 17 13 13 8 -3 14 -6 14 -8z m80 5 c0 -5 -4
-10 -10 -10 -5 0 -10 5 -10 10 0 6 5 10 10 10 6 0 10 -4 10 -10z m80 -12 c0
-13 -23 -5 -28 10 -2 7 2 10 12 6 9 -3 16 -11 16 -16z m1219 -18 c18 0 20 -4
15 -27 -14 -58 -22 -65 -53 -49 -20 11 -30 25 -34 48 -3 18 -9 42 -13 52 -7
19 -6 19 28 -2 19 -12 45 -22 57 -22z m-1269 21 c0 -6 -4 -13 -10 -16 -5 -3
-10 1 -10 9 0 9 5 16 10 16 6 0 10 -4 10 -9z m-10 -80 c-1 -13 -29 45 -29 59
0 8 6 0 14 -19 8 -18 15 -36 15 -40z m1629 -166 c18 -38 35 -92 38 -120 5 -41
13 -56 43 -85 41 -38 60 -90 59 -155 -1 -38 -1 -39 -8 -10 -10 39 -48 114 -71
140 -31 34 -98 202 -125 310 -32 132 -31 147 4 60 16 -38 43 -101 60 -140z
m-1309 183 c0 -4 -7 -8 -15 -8 -8 0 -15 4 -15 8 0 5 7 9 15 9 8 0 15 -4 15 -9z
m-260 -17 c0 -10 -7 -21 -15 -24 -12 -5 -12 -2 -3 18 13 30 18 31 18 6z m3105
-21 c11 -17 -5 -32 -21 -19 -7 6 -11 15 -8 20 7 12 21 11 29 -1z m-2793 -18
c3 -9 2 -26 -2 -37 -6 -16 -8 -14 -18 15 -15 41 -15 40 2 40 7 0 16 -8 18 -18z
m2917 -26 c24 -38 28 -61 6 -32 -15 19 -15 19 -15 -3 0 -15 7 -25 20 -28 16
-4 18 -8 9 -19 -6 -8 -18 -14 -27 -14 -19 0 -82 47 -82 62 0 7 5 6 15 -2 14
-11 19 -7 16 13 0 4 4 7 9 7 6 0 10 -9 10 -21 0 -11 4 -18 9 -14 6 3 6 18 1
37 -8 27 -6 48 5 48 2 0 13 -15 24 -34z m-2857 -68 c-9 -9 -12 -7 -12 12 0 19
3 21 12 12 9 -9 9 -15 0 -24z m1001 -140 c25 -79 54 -168 63 -198 39 -133 133
-280 179 -280 8 0 15 -8 15 -19 0 -10 16 -31 35 -45 l35 -27 -7 48 c-3 26 -11
59 -16 73 -6 14 -11 27 -12 30 -1 3 -7 18 -13 33 -7 16 -12 39 -12 53 0 14
-15 40 -39 64 -21 22 -36 42 -32 45 3 3 -1 10 -9 15 -13 8 -12 10 2 10 9 0 19
-4 23 -10 3 -5 11 -7 18 -4 7 2 35 -20 63 -49 39 -41 53 -63 58 -98 11 -61 35
-363 30 -368 -9 -10 -112 47 -152 84 -24 22 -50 44 -58 48 -8 4 -14 17 -14 27
0 11 -12 36 -26 57 -35 52 -114 219 -114 243 0 10 -4 21 -9 24 -16 10 -50 142
-56 216 -3 41 -10 92 -16 114 -11 39 -6 71 9 62 5 -3 29 -69 55 -148z m1997
137 c-7 -8 -17 -15 -22 -15 -6 0 -5 7 2 15 7 8 17 15 22 15 6 0 5 -7 -2 -15z
m-3005 -35 c3 -5 1 -10 -4 -10 -6 0 -11 5 -11 10 0 6 2 10 4 10 3 0 8 -4 11
-10z m3045 -59 c0 -6 -4 -13 -10 -16 -5 -3 -10 1 -10 9 0 9 5 16 10 16 6 0 10
-4 10 -9z m67 -13 c-3 -8 -6 -5 -6 6 -1 11 2 17 5 13 3 -3 4 -12 1 -19z m53
-28 c0 -3 19 -6 43 -6 57 -2 152 -48 201 -98 23 -23 70 -83 106 -135 36 -51
100 -130 143 -173 42 -44 77 -84 77 -89 0 -13 -14 -11 -28 4 -7 6 -17 12 -21
12 -5 0 -30 26 -56 58 -26 31 -51 57 -56 57 -5 0 -9 6 -9 13 0 7 -42 53 -93
103 -101 96 -202 160 -300 188 -45 13 -57 21 -53 32 3 9 6 22 6 29 0 8 9 13
20 12 11 -1 20 -4 20 -7z m-160 -22 c0 -6 -6 -5 -15 2 -8 7 -15 14 -15 16 0 2
7 1 15 -2 8 -4 15 -11 15 -16z m-2503 -23 c-23 -22 -40 -19 -25 4 7 11 16 17
20 15 4 -3 8 1 9 8 0 10 2 10 6 1 2 -7 -2 -20 -10 -28z m33 -14 c0 -5 -7 -14
-15 -21 -8 -7 -15 -18 -15 -26 0 -19 -19 -28 -26 -11 -3 8 5 26 18 40 24 26
38 33 38 18z m-64 -47 c0 -18 -4 -30 -8 -28 -4 3 -8 -2 -8 -11 0 -10 5 -13 13
-9 7 5 7 1 -2 -10 -13 -15 -13 -19 0 -26 10 -7 15 -4 18 8 5 23 29 58 39 55 4
-2 7 3 7 10 1 13 24 55 26 47 8 -33 4 -100 -7 -121 -11 -23 -11 -29 0 -38 10
-9 12 -21 5 -49 -4 -20 -6 -38 -4 -41 6 -5 -35 -41 -47 -41 -17 0 -19 28 -5
63 14 33 14 34 -4 30 -10 -3 -17 -9 -14 -13 3 -4 -2 -13 -10 -20 -8 -7 -15
-20 -15 -29 0 -14 2 -14 10 -1 8 12 10 10 10 -9 0 -23 -1 -23 -18 -8 -10 10
-21 15 -23 12 -3 -2 -6 12 -6 32 -1 25 2 32 8 22 7 -11 9 -11 9 4 0 9 -4 17
-10 17 -5 0 -10 7 -10 15 0 16 20 16 32 0 4 -5 8 0 8 12 0 16 -5 20 -20 16
-14 -4 -20 0 -20 11 0 10 5 14 10 11 14 -8 13 1 -2 25 -11 17 -10 22 2 30 8 5
11 10 7 10 -5 0 -5 6 0 13 4 6 6 19 5 28 -2 9 3 16 11 16 8 0 13 -12 13 -33z
m2779 -147 c11 -23 19 -48 18 -54 0 -7 3 -11 7 -8 4 3 36 -27 71 -66 126 -140
220 -229 242 -229 8 0 19 11 25 25 7 15 8 25 2 25 -6 0 -10 -5 -10 -12 0 -6
-9 -3 -20 7 -11 10 -20 26 -20 35 0 9 -28 46 -62 81 -35 36 -85 91 -111 122
-27 31 -64 66 -83 78 -19 12 -33 24 -30 27 3 2 31 -10 62 -29 52 -32 308 -290
347 -350 17 -26 39 -161 25 -153 -4 3 -8 15 -8 27 0 49 -11 67 -41 67 -15 0
-31 5 -34 10 -3 6 -16 10 -28 10 -20 -1 -20 -2 -4 -11 40 -24 -3 -56 -46 -34
-25 13 -27 12 -27 -6 0 -10 -3 -19 -6 -19 -10 0 -94 88 -94 99 0 17 -172 162
-187 157 -7 -3 -13 -1 -13 5 0 5 -8 22 -17 36 -10 15 -18 38 -18 52 0 37 -21
36 -34 -1 -12 -34 -14 -34 -42 15 -7 13 -7 17 3 15 7 -2 13 5 13 14 0 10 6 23
12 29 9 9 9 16 2 25 -14 17 -3 35 16 27 18 -6 21 27 3 45 -7 7 4 6 28 -4 30
-12 44 -25 59 -57z m-468 9 c-2 -6 -16 -12 -30 -14 -25 -3 -27 -1 -27 33 l0
36 30 -21 c17 -12 29 -27 27 -34z m-1819 -155 c78 -88 150 -162 161 -166 11
-3 22 -13 25 -21 16 -43 -97 20 -199 111 -52 46 -72 73 -105 141 -22 46 -40
86 -40 89 0 19 33 -13 158 -154z m1874 109 c-1 -14 -5 -40 -8 -58 -4 -28 -2
-34 15 -39 12 -3 21 -10 21 -15 0 -19 -21 -48 -36 -48 -8 0 -13 4 -10 9 3 4
-10 26 -29 47 -39 44 -44 67 -17 86 10 7 21 21 25 31 11 28 43 17 39 -13z
m-154 3 c-5 -7 -14 -10 -19 -7 -16 10 -9 23 10 21 15 -1 17 -4 9 -14z m-18
-59 c0 -13 -4 -24 -9 -24 -11 0 -21 25 -21 52 0 17 3 18 15 8 8 -7 15 -23 15
-36z m58 -87 c25 -38 27 -47 10 -47 -12 0 -68 62 -68 74 0 4 8 6 18 6 9 0 27
-15 40 -33z m167 -26 c-3 -6 -11 -11 -17 -11 -6 0 -6 6 2 15 14 17 26 13 15
-4z m899 -17 c3 -8 2 -12 -4 -9 -6 3 -10 10 -10 16 0 14 7 11 14 -7z m-504
-44 c0 -6 11 -21 25 -34 14 -13 25 -31 25 -40 0 -9 7 -16 15 -16 24 0 18 -38
-12 -75 l-26 -33 -34 26 c-38 31 -43 46 -10 37 12 -3 -5 10 -39 29 -88 51 -95
62 -61 92 21 18 40 24 73 24 24 0 44 -5 44 -10z m-102 -118 c34 -30 49 -51 44
-59 -5 -9 -24 0 -62 31 -36 29 -57 40 -62 33 -4 -6 -11 -8 -15 -3 -4 5 -2 11
5 13 6 3 12 11 12 19 0 25 24 15 78 -34z m-2181 -16 c65 -19 154 -51 198 -71
44 -20 104 -46 133 -57 49 -18 52 -21 52 -55 0 -28 -3 -34 -16 -29 -9 3 -23 6
-33 6 -9 0 -57 23 -106 52 -123 70 -243 121 -350 148 -111 27 -128 40 -53 40
34 0 103 -13 175 -34z m2138 -14 c-6 -7 -34 11 -29 19 3 5 11 3 19 -4 7 -6 12
-13 10 -15z m45 -32 c0 -5 -4 -10 -10 -10 -5 0 -10 5 -10 10 0 6 5 10 10 10 6
0 10 -4 10 -10z m94 -21 c-3 -5 0 -9 5 -9 6 0 11 -5 11 -11 0 -21 -45 -4 -48
18 -3 17 1 20 17 16 12 -3 18 -9 15 -14z m490 15 c9 -3 16 -15 16 -27 0 -19
-1 -20 -20 -2 -30 27 -28 41 4 29z m-3061 -34 c3 -11 1 -20 -4 -20 -5 0 -9 9
-9 20 0 11 2 20 4 20 2 0 6 -9 9 -20z m297 -20 c111 -37 319 -119 348 -138 19
-12 22 -22 20 -56 -3 -40 -4 -41 -37 -38 -32 2 -114 31 -209 74 -24 10 -60 21
-80 23 -55 7 -122 25 -172 47 -50 22 -114 67 -106 75 2 3 60 -13 128 -35 119
-39 271 -79 333 -89 l30 -5 -30 17 c-35 20 -305 125 -320 125 -27 0 -85 22
-80 31 9 13 77 1 175 -31z m2235 10 c10 -11 16 -20 13 -20 -3 0 -15 9 -28 20
-13 11 -19 20 -13 20 5 0 18 -9 28 -20z m545 -62 c0 -10 -4 -18 -10 -18 -5 0
-10 15 -10 33 0 24 3 28 10 17 5 -8 10 -23 10 -32z m20 32 c0 -5 -4 -10 -10
-10 -5 0 -10 5 -10 10 0 6 5 10 10 10 6 0 10 -4 10 -10z m50 -22 c0 -23 -3
-29 -11 -21 -6 6 -8 20 -4 32 9 30 15 26 15 -11z m-3180 -28 c-6 -37 -8 -40
-9 -13 -1 29 8 68 14 61 1 -2 -1 -23 -5 -48z m2959 3 c31 -35 33 -40 27 -92
-7 -59 -19 -81 -45 -80 -12 0 -11 4 7 16 28 20 28 54 -1 90 -67 83 -56 143 12
66z m177 -30 c-10 -10 -19 5 -10 18 6 11 8 11 12 0 2 -7 1 -15 -2 -18z m114
-42 c0 -12 -28 -22 -34 -12 -3 5 -3 11 1 15 9 9 33 7 33 -3z m-2955 -11 c33
-5 129 -35 213 -66 120 -44 152 -60 152 -74 0 -29 -11 -30 -85 -10 -39 11 -88
20 -111 20 -36 0 -76 9 -124 28 -8 3 -27 7 -43 9 -34 4 -187 73 -187 84 0 12
13 11 47 -2 23 -9 187 -38 218 -39 6 0 6 3 0 9 -6 6 -41 15 -79 21 -72 11
-120 29 -81 30 11 0 47 -5 80 -10z m-318 -22 c-3 -8 -6 -5 -6 6 -1 11 2 17 5
13 3 -3 4 -12 1 -19z m138 -39 c44 -27 46 -30 20 -25 -47 8 -106 36 -100 46
10 16 27 11 80 -21z m-128 -1 c-3 -8 -6 -5 -6 6 -1 11 2 17 5 13 3 -3 4 -12 1
-19z m2813 -8 c-5 -3 -5 -11 -1 -18 6 -10 12 -6 25 12 20 31 41 34 33 6 -3
-11 1 -27 9 -34 12 -13 11 -15 -5 -21 -39 -12 -91 29 -91 71 0 12 4 12 20 2
10 -7 15 -15 10 -18z m-2807 -47 c4 -3 0 -15 -10 -25 -10 -11 -15 -32 -14 -56
3 -45 4 -141 2 -164 0 -10 -5 -18 -11 -18 -15 0 -12 30 3 31 6 0 7 3 2 5 -6 2
-9 22 -7 43 2 21 -1 41 -6 45 -18 11 7 146 28 146 3 0 10 -3 13 -7z m377 -48
c63 -9 133 -18 155 -19 61 -4 82 -14 90 -43 10 -40 -6 -48 -67 -34 -127 28
-351 69 -400 74 -9 1 -14 6 -11 11 4 5 -3 7 -14 4 -12 -3 -27 -2 -34 3 -10 6
-7 11 11 18 30 13 114 8 270 -14z m2449 -41 c2 -2 -10 -4 -27 -4 -18 0 -32 5
-32 10 0 9 47 4 59 -6z m951 -34 c0 -11 -1 -11 -120 -11 -101 0 -98 0 -80 11
20 13 200 13 200 0z m-4285 -20 l20 -9 -20 0 c-11 0 -29 4 -40 9 l-20 9 20 0
c11 0 29 -4 40 -9z m455 -10 c0 -12 -7 -20 -17 -20 -9 0 -13 3 -10 7 4 3 2 12
-4 20 -9 10 -7 13 10 13 14 0 21 -6 21 -20z m479 -4 c15 -8 58 -20 94 -26 59
-11 66 -15 65 -33 0 -12 4 -34 10 -49 14 -33 5 -40 -35 -29 -17 5 -73 14 -124
21 -154 19 -219 32 -220 44 -1 6 -5 -2 -9 -19 l-8 -30 -1 31 c-1 28 -5 33 -33
38 -18 3 -50 4 -72 2 -21 -2 -34 0 -30 4 15 15 134 30 249 31 l110 2 -95 8
c-140 12 -147 16 -32 18 72 1 111 -3 131 -13z m253 -34 c-6 -15 -14 -42 -17
-60 -10 -47 -20 -30 -20 33 0 45 3 56 20 63 25 12 30 0 17 -36z m-786 12 c-4
-10 3 -14 24 -14 34 0 37 -7 16 -36 -13 -17 -16 -17 -30 -4 -20 20 -35 87 -17
76 7 -5 10 -14 7 -22z m-596 -19 c52 -8 172 -23 265 -35 94 -11 189 -23 213
-26 25 -3 42 -10 42 -18 0 -11 -10 -11 -47 -4 -27 5 -94 10 -151 11 -57 1 -94
4 -82 7 12 3 -32 13 -97 23 -65 10 -140 22 -168 27 -27 5 -78 12 -112 15 -35
4 -63 10 -63 15 0 9 80 4 200 -15z m583 -34 c-2 -6 2 -11 7 -11 6 0 10 -7 10
-15 0 -10 10 -15 30 -15 17 0 30 -4 30 -10 0 -16 -50 -12 -67 5 -8 8 -20 12
-26 8 -7 -3 -9 -3 -5 2 4 4 3 14 -3 21 -6 7 -8 18 -4 24 9 14 31 7 28 -9z
m3707 -1 c0 -5 -2 -10 -4 -10 -3 0 -8 5 -11 10 -3 6 -1 10 4 10 6 0 11 -4 11
-10z m-3571 -79 c-2 -6 -10 2 -17 17 -11 25 -11 25 4 10 9 -9 15 -21 13 -27z
m-464 14 l100 -14 -95 4 c-98 5 -198 22 -135 23 17 1 75 -5 130 -13z m740 5
c-11 -5 -33 -9 -50 -9 -23 -1 -26 2 -15 9 8 5 31 9 50 9 29 0 31 -2 15 -9z
m-422 -50 c9 -9 6 -10 -13 -6 -90 19 -135 26 -160 26 -16 0 -31 4 -34 8 -8 13
194 -14 207 -28z m758 -70 c-6 -37 -8 -41 -12 -19 -5 24 7 77 15 68 2 -2 0
-24 -3 -49z m-301 -54 c0 -3 -4 -8 -10 -11 -5 -3 -10 -1 -10 4 0 6 5 11 10 11
6 0 10 -2 10 -4z m30 -166 c0 -5 -4 -10 -10 -10 -5 0 -10 5 -10 10 0 6 5 10
10 10 6 0 10 -4 10 -10z m3021 -173 c-10 -9 -11 -8 -5 6 3 10 9 15 12 12 3 -3
0 -11 -7 -18z"/>
<path d="M4421 3693 c0 -6 -4 -20 -7 -30 -5 -14 -4 -15 5 -7 7 7 11 20 8 30
-3 11 -5 14 -6 7z"/>
<path d="M610 2750 c0 -5 5 -10 10 -10 6 0 10 5 10 10 0 6 -4 10 -10 10 -5 0
-10 -4 -10 -10z"/>
<path d="M508 2283 c7 -3 16 -2 19 1 4 3 -2 6 -13 5 -11 0 -14 -3 -6 -6z"/>
<path d="M491 2081 c-10 -7 -10 -10 -1 -16 6 -4 16 -3 22 3 13 13 -4 23 -21
13z"/>
<path d="M500 2025 c0 -8 4 -15 8 -15 5 0 9 7 9 15 0 8 -4 15 -9 15 -4 0 -8
-7 -8 -15z"/>
<path d="M908 2263 c7 -3 16 -2 19 1 4 3 -2 6 -13 5 -11 0 -14 -3 -6 -6z"/>
<path d="M846 2243 c-6 -14 -5 -15 5 -6 7 7 10 15 7 18 -3 3 -9 -2 -12 -12z"/>
<path d="M865 1990 c3 -5 8 -10 11 -10 2 0 4 5 4 10 0 6 -5 10 -11 10 -5 0 -7
-4 -4 -10z"/>
<path d="M1208 2215 c-3 -22 -9 -48 -13 -57 -4 -11 -3 -18 3 -18 12 0 27 80
20 102 -3 7 -7 -5 -10 -27z"/>
<path d="M1182 2228 c-14 -14 -16 -28 -3 -28 5 0 11 9 14 20 6 23 5 24 -11 8z"/>
<path d="M1322 2210 c0 -14 2 -19 5 -12 2 6 2 18 0 25 -3 6 -5 1 -5 -13z"/>
<path d="M1200 2111 c0 -11 -5 -21 -11 -23 -7 -2 -6 -8 3 -16 12 -10 15 -6 16
23 1 19 -1 35 -3 35 -3 0 -5 -9 -5 -19z"/>
<path d="M1317 2003 c-4 -3 -7 -16 -7 -27 1 -20 1 -20 15 -2 13 17 15 17 21 3
3 -9 10 -14 15 -12 4 3 -1 15 -11 25 -22 22 -24 23 -33 13z"/>
<path d="M1290 1810 c-8 -5 -11 -12 -7 -16 4 -4 13 -2 19 4 15 15 7 24 -12 12z"/>
<path d="M4350 1798 c0 -11 28 -10 35 1 3 6 -4 9 -15 8 -11 -1 -20 -5 -20 -9z"/>
<path d="M1651 1674 c0 -11 3 -14 6 -6 3 7 2 16 -1 19 -3 4 -6 -2 -5 -13z"/>
<path d="M1642 1630 c0 -14 2 -19 5 -12 2 6 2 18 0 25 -3 6 -5 1 -5 -13z"/>
<path d="M1611 1624 c0 -11 3 -14 6 -6 3 7 2 16 -1 19 -3 4 -6 -2 -5 -13z"/>
<path d="M1655 1540 c3 -5 8 -10 11 -10 2 0 4 5 4 10 0 6 -5 10 -11 10 -5 0
-7 -4 -4 -10z"/>
<path d="M2398 918 c6 -6 18 -8 28 -6 14 3 12 5 -9 10 -19 3 -25 2 -19 -4z"/>
<path d="M5101 5494 c0 -11 3 -14 6 -6 3 7 2 16 -1 19 -3 4 -6 -2 -5 -13z"/>
<path d="M5146 5489 c-3 -13 -26 -130 -51 -259 -25 -129 -52 -266 -61 -305 -8
-38 -28 -142 -44 -230 -17 -88 -37 -189 -45 -225 -7 -36 -26 -128 -40 -205
-15 -77 -47 -239 -71 -360 -25 -121 -53 -265 -64 -320 -32 -171 -82 -410 -86
-414 -8 -8 -4 29 11 101 17 80 32 163 100 554 24 144 60 340 79 435 32 161
126 662 142 754 4 22 4 38 1 35 -3 -3 -27 -111 -52 -240 -26 -129 -62 -311
-81 -405 -20 -93 -42 -206 -50 -250 -71 -372 -87 -456 -96 -495 -5 -25 -14
-67 -19 -95 -4 -27 -22 -115 -39 -195 -18 -80 -34 -168 -37 -195 l-5 -50 53
-19 c30 -11 59 -21 65 -23 7 -3 17 27 27 79 9 46 30 157 47 248 17 91 38 201
45 245 7 44 25 143 40 220 14 77 35 187 45 245 11 58 26 143 35 190 9 47 22
119 30 160 8 41 30 161 50 265 104 545 144 769 140 773 -9 9 -17 -7 -25 -50
-28 -146 -175 -893 -205 -1038 -8 -36 -17 -85 -20 -110 -4 -25 -13 -71 -21
-102 -8 -31 -16 -70 -18 -86 -2 -16 -18 -96 -34 -178 -38 -184 -72 -356 -82
-409 -8 -44 -76 -388 -83 -420 -3 -13 -5 -10 -6 10 0 17 4 49 9 71 5 23 25
129 44 235 91 505 177 981 191 1049 8 41 30 158 49 260 20 102 60 315 90 474
31 160 54 292 51 294 -2 2 -6 -6 -9 -19z m-459 -2349 c-1 -11 -5 -20 -9 -20
-4 0 -8 9 -8 20 0 11 4 20 9 20 6 0 9 -9 8 -20z"/>
<path d="M5255 5473 c-12 -58 -12 -58 -44 -223 -17 -85 -39 -200 -50 -255 -44
-219 -127 -639 -135 -690 -2 -11 -36 -180 -75 -375 -39 -195 -75 -377 -80
-405 -5 -27 -19 -95 -31 -150 -11 -55 -25 -125 -31 -155 -6 -30 -15 -71 -20
-91 -13 -51 -12 -57 14 -64 24 -7 52 -18 170 -65 44 -17 81 -29 84 -27 2 3 7
20 9 39 3 18 11 67 19 108 86 484 109 612 139 775 19 105 62 336 96 515 34
179 72 384 85 455 13 72 36 193 51 270 14 77 36 193 49 258 l22 117 -23 0
c-17 0 -23 -7 -28 -37 -4 -21 -11 -58 -16 -83 -6 -25 -33 -164 -60 -310 -28
-146 -57 -294 -65 -330 -28 -128 -45 -220 -45 -245 0 -14 -4 -25 -10 -25 -5 0
-10 -12 -10 -27 0 -16 -7 -64 -16 -108 -8 -44 -17 -91 -19 -105 -3 -14 -18
-90 -35 -170 -17 -80 -39 -190 -49 -245 -11 -55 -31 -156 -45 -225 -15 -69
-33 -161 -41 -205 -8 -44 -28 -145 -44 -225 -17 -80 -31 -148 -31 -152 0 -5
-4 -8 -9 -8 -4 0 2 55 15 123 12 67 27 149 33 182 10 57 59 326 101 555 50
272 144 770 189 1005 27 143 64 337 81 430 17 94 34 178 36 188 4 12 0 17 -15
17 -23 0 -20 10 -56 -180 -14 -74 -30 -153 -35 -175 -5 -22 -16 -78 -25 -125
-8 -47 -36 -188 -61 -315 -25 -126 -47 -239 -49 -250 -3 -23 -68 -349 -119
-605 -20 -96 -41 -200 -47 -230 -6 -30 -15 -75 -20 -100 -43 -205 -91 -458
-91 -472 0 -10 -4 -18 -10 -18 -6 0 -8 10 -5 23 4 12 17 87 31 167 35 202 51
294 80 450 14 74 32 173 40 220 8 47 22 121 30 165 8 44 22 116 30 160 8 44
28 152 45 240 56 300 191 1010 195 1028 3 13 -1 17 -12 15 -11 -2 -20 -22 -29
-68 -6 -36 -31 -159 -53 -275 -23 -115 -43 -219 -44 -230 -2 -11 -6 -30 -10
-43 -4 -13 -10 -38 -12 -55 -2 -18 -8 -52 -13 -77 -5 -25 -16 -83 -25 -130 -8
-47 -22 -116 -31 -155 -8 -38 -29 -139 -46 -224 -16 -85 -31 -157 -33 -160 -2
-3 -7 -28 -10 -56 -4 -27 -15 -86 -26 -130 -10 -44 -41 -199 -69 -345 -29
-146 -61 -310 -72 -365 -11 -55 -21 -106 -21 -112 -1 -7 -5 -13 -10 -13 -5 0
-7 8 -4 18 2 9 21 105 40 212 59 321 157 861 166 918 5 30 12 61 15 71 2 9 16
77 29 151 14 74 45 241 70 370 25 129 63 332 86 450 22 118 42 223 44 233 2 9
-2 17 -9 17 -7 0 -16 -17 -20 -37z"/>
<path d="M5561 5443 c-7 -38 -19 -95 -26 -128 -8 -33 -26 -123 -40 -200 -27
-139 -58 -299 -77 -385 -5 -25 -13 -70 -18 -100 -7 -51 -23 -143 -34 -198 -3
-12 -7 -26 -10 -30 -3 -5 -10 -37 -16 -73 -6 -35 -13 -73 -15 -84 -2 -11 -8
-45 -14 -75 -6 -30 -17 -86 -26 -125 -9 -38 -24 -119 -35 -180 -11 -60 -31
-166 -45 -235 -14 -69 -34 -172 -45 -230 -11 -58 -30 -150 -42 -205 -11 -55
-26 -130 -33 -166 l-12 -67 35 -16 c19 -9 36 -16 37 -14 3 3 62 319 100 538
35 202 195 1073 200 1090 2 8 29 150 59 315 30 165 69 372 86 460 16 88 30
163 30 168 0 4 -11 7 -24 7 -22 0 -25 -6 -35 -67z"/>
<path d="M5666 5483 c-18 -84 -44 -220 -51 -268 -4 -22 -8 -48 -11 -57 -7 -23
-13 -53 -25 -128 -5 -36 -17 -94 -26 -130 -8 -36 -21 -101 -29 -145 -15 -90
-29 -167 -50 -270 -8 -38 -17 -83 -19 -100 -8 -58 -35 -186 -41 -197 -4 -5
-10 -35 -15 -66 -5 -32 -15 -88 -23 -127 -8 -38 -21 -106 -29 -150 -9 -44 -23
-116 -31 -160 -9 -44 -25 -125 -35 -180 -36 -191 -91 -470 -104 -525 l-14 -55
39 -27 38 -28 4 23 c3 12 37 200 76 417 63 346 232 1267 306 1660 14 74 42
226 63 338 l37 202 -27 0 c-22 0 -29 -6 -33 -27z"/>
<path d="M5771 5463 c-7 -27 -14 -61 -17 -78 -3 -16 -14 -73 -24 -125 -11 -52
-34 -169 -50 -260 -43 -231 -66 -349 -91 -465 -11 -55 -23 -118 -25 -140 -2
-22 -8 -53 -13 -70 -5 -16 -17 -75 -26 -130 -9 -55 -20 -107 -23 -115 -3 -8
-4 -19 -3 -24 1 -5 -1 -16 -5 -25 -4 -9 -8 -27 -9 -41 -2 -14 -10 -56 -20 -95
-9 -38 -20 -95 -25 -126 -5 -31 -18 -99 -29 -150 -11 -52 -29 -146 -41 -209
-12 -63 -30 -160 -41 -215 -10 -55 -23 -122 -28 -150 -6 -27 -17 -81 -25 -120
-14 -69 -14 -70 8 -95 13 -14 30 -36 39 -49 l16 -24 5 24 c18 86 138 732 202
1084 85 470 97 537 149 815 20 107 61 328 91 490 29 162 56 305 59 318 5 20 2
22 -29 22 -33 0 -35 -2 -45 -47z"/>
<path d="M5918 5454 c-3 -32 -10 -60 -16 -62 -16 -5 -15 -29 1 -35 10 -4 10
-6 0 -6 -7 -1 -13 -7 -13 -15 0 -8 -5 -16 -12 -18 -6 -2 -13 -21 -14 -42 -2
-22 -8 -54 -15 -73 -6 -19 -8 -45 -5 -59 4 -13 2 -24 -3 -24 -5 0 -11 -19 -14
-42 -3 -24 -12 -72 -21 -108 -8 -36 -24 -114 -36 -175 -12 -60 -34 -173 -50
-250 -15 -77 -31 -153 -33 -170 -3 -16 -21 -106 -41 -200 -21 -93 -39 -190
-42 -215 -2 -25 -10 -70 -18 -100 -8 -30 -24 -109 -36 -175 -12 -66 -28 -149
-35 -185 -27 -126 -78 -395 -80 -420 -2 -25 -11 -69 -45 -215 -11 -44 -18 -92
-16 -107 2 -15 -1 -25 -5 -22 -17 10 -9 -7 45 -94 130 -212 208 -429 246 -684
l13 -88 209 0 208 0 -6 -24 c-5 -20 -1 -25 18 -29 54 -10 -43 -6 -187 8 -82 8
-169 15 -192 15 l-43 0 0 -42 c0 -24 14 -96 30 -161 16 -65 32 -158 36 -207 5
-69 10 -87 20 -83 8 3 14 1 14 -5 0 -6 -4 -12 -9 -14 -14 -5 -14 -86 0 -136 9
-34 9 -49 -1 -70 -15 -30 -13 -87 2 -117 15 -27 18 -105 6 -138 -7 -19 -7 -31
1 -40 6 -8 12 -43 15 -79 3 -62 18 -108 34 -108 5 0 231 -22 503 -50 272 -27
530 -52 574 -56 44 -3 83 -8 87 -10 4 -3 132 0 285 6 153 6 308 11 345 13 50
1 68 6 68 16 0 13 -111 12 -425 -4 -55 -3 -133 -7 -172 -10 l-73 -3 0 37 0 38
88 7 c48 3 184 9 302 12 118 4 231 10 250 14 l35 8 -45 2 -45 2 35 8 c19 5 38
6 42 4 5 -3 8 13 8 35 0 33 -3 40 -22 43 -13 2 -27 13 -33 26 -13 30 -60 27
-60 -3 0 -22 -12 -35 -34 -35 -12 0 -12 3 1 18 8 9 18 25 21 35 4 11 17 17 36
17 23 0 31 5 34 23 4 18 4 17 6 -6 1 -37 18 -67 36 -67 12 0 15 20 15 110 0
89 -3 110 -14 110 -8 0 -21 9 -30 21 -13 19 -14 20 -18 2 -3 -15 -14 -18 -71
-20 -65 -1 -67 0 -67 24 0 30 -24 26 -28 -5 -2 -14 -11 -22 -23 -22 -17 0 -19
7 -19 60 0 33 3 61 8 61 42 7 124 6 149 -1 20 -5 35 -5 39 1 4 6 11 6 19 -1 8
-7 23 -9 35 -5 19 6 20 14 20 131 0 118 -1 124 -20 124 -12 0 -25 11 -33 26
l-12 27 -5 -24 c-4 -15 -13 -24 -25 -24 -15 0 -21 10 -28 44 -6 29 -12 40 -19
33 -7 -7 -6 -17 2 -32 16 -31 5 -50 -29 -50 -23 0 -31 6 -39 28 l-9 27 -14
-30 c-7 -16 -14 -31 -15 -33 0 -1 -9 0 -18 4 -11 4 -16 19 -16 51 0 80 5 83
123 77 56 -2 103 -9 105 -14 2 -5 14 -2 28 6 23 16 24 21 24 129 l0 113 -43 3
c-24 2 -175 2 -335 1 l-292 -4 0 -25 c0 -20 4 -23 20 -18 11 3 25 3 32 -1 6
-4 49 -7 95 -6 46 0 83 -4 83 -9 0 -6 8 -6 19 1 11 5 40 10 66 10 l46 0 -3
-62 -3 -62 -50 -2 c-39 -2 -55 2 -72 19 -19 16 -23 17 -23 5 0 -16 -26 -32
-40 -23 -4 2 -10 23 -14 45 -3 22 -11 40 -17 40 -7 0 -9 -9 -5 -23 15 -47 12
-52 -24 -52 -28 0 -35 4 -40 24 -4 19 -7 21 -16 10 -6 -8 -14 -22 -17 -31 -4
-10 -16 -18 -27 -18 -17 0 -20 5 -18 27 2 21 -3 30 -19 38 -28 12 -31 29 -4
20 22 -7 29 16 22 72 -3 28 -8 33 -35 37 -49 8 -221 24 -471 46 -126 11 -257
22 -289 25 -33 3 -62 8 -65 12 -3 3 28 3 69 -1 171 -15 297 -26 510 -47 268
-26 760 -38 760 -19 0 8 15 10 50 6 28 -3 72 -9 99 -12 l49 -6 0 914 c0 502
-4 897 -8 878 -5 -19 -13 -66 -19 -105 -34 -212 -43 -260 -52 -263 -5 -2 -9
-13 -9 -25 0 -12 -9 -69 -20 -127 -11 -58 -22 -125 -24 -150 -4 -40 -23 -168
-30 -195 -7 -24 -20 -51 -30 -57 -7 -5 -5 -8 4 -8 13 0 13 -1 0 -10 -8 -5 -23
-10 -33 -10 -16 0 -18 6 -13 38 52 328 139 869 196 1215 l40 238 0 477 c0 309
-4 472 -10 462 -5 -8 -7 -23 -4 -33 3 -10 1 -23 -4 -30 -5 -7 -15 -48 -21 -91
-6 -44 -18 -88 -27 -97 -10 -11 -12 -19 -5 -24 6 -3 11 -14 11 -23 0 -14 -2
-15 -10 -2 -8 13 -9 13 -13 0 -25 -83 -31 -109 -32 -136 -1 -17 -12 -53 -24
-79 -18 -39 -21 -53 -12 -72 13 -29 14 -46 2 -39 -10 7 -24 -22 -16 -34 3 -5
1 -12 -5 -15 -8 -5 -7 -11 1 -21 9 -11 8 -18 -2 -30 -8 -9 -12 -27 -11 -40 2
-13 -4 -26 -13 -31 -13 -8 -14 -15 -6 -36 10 -26 9 -27 -9 -17 -14 7 -20 7
-20 0 0 -5 5 -10 10 -10 6 0 10 -5 10 -11 0 -5 -4 -8 -9 -5 -11 7 -21 -18 -21
-55 0 -19 5 -29 15 -29 13 0 14 -4 4 -22 -7 -13 -17 -26 -22 -30 -6 -3 -11
-24 -13 -46 -1 -22 -5 -45 -9 -51 -5 -10 -53 -241 -56 -276 -1 -5 2 -19 6 -30
5 -14 4 -16 -2 -7 -7 9 -14 -14 -22 -71 -6 -46 -18 -108 -25 -138 -8 -30 -17
-85 -21 -124 -3 -38 -11 -88 -17 -110 -22 -90 -27 -115 -44 -215 -9 -58 -18
-114 -20 -125 -2 -11 -12 -62 -23 -114 -11 -52 -18 -98 -15 -103 3 -4 1 -8 -5
-8 -5 0 -8 -12 -5 -26 3 -16 1 -23 -6 -19 -5 3 -10 17 -10 31 0 14 -4 23 -8
20 -20 -12 -30 10 -21 49 5 22 50 290 99 595 103 631 109 666 225 1375 47 286
100 609 118 718 l34 197 -54 0 c-46 0 -56 -3 -60 -20 -3 -11 -12 -20 -19 -20
-8 0 -14 -6 -15 -12 0 -7 -2 -33 -4 -58 -2 -27 1 -48 8 -52 8 -5 6 -8 -6 -8
-14 0 -17 -8 -16 -42 2 -43 -25 -177 -43 -211 -19 -38 -28 -68 -18 -62 6 4 7
-6 3 -27 -3 -18 -9 -34 -14 -36 -4 -2 -5 -12 -2 -22 3 -11 0 -20 -6 -20 -6 0
-12 -19 -12 -42 -1 -24 -3 -35 -6 -25 -5 21 -23 23 -23 3 0 -8 4 -26 9 -40 7
-17 7 -26 -2 -29 -8 -2 -11 -26 -10 -66 1 -50 -2 -61 -13 -57 -11 4 -13 -4
-10 -37 2 -28 -2 -48 -13 -61 -11 -12 -16 -36 -15 -77 1 -40 -3 -60 -12 -63
-9 -4 -14 -22 -14 -55 0 -43 -4 -53 -25 -67 -23 -15 -38 -53 -16 -39 16 9 3
-103 -15 -130 -9 -13 -13 -33 -9 -44 3 -10 1 -22 -5 -26 -5 -3 -10 -17 -10
-30 0 -13 -5 -27 -11 -31 -6 -3 -8 -16 -5 -27 3 -12 1 -27 -5 -33 -6 -7 -11
-35 -12 -63 -1 -28 -5 -51 -9 -51 -4 0 -9 -21 -13 -47 -3 -27 -16 -109 -30
-183 -14 -74 -30 -166 -36 -205 -6 -38 -15 -90 -19 -115 -26 -141 -52 -269
-75 -380 -14 -69 -27 -136 -30 -148 -2 -13 -9 -30 -16 -38 -6 -7 -9 -28 -7
-44 3 -17 1 -33 -4 -36 -13 -8 -9 -26 5 -19 6 4 -1 -6 -18 -20 -16 -15 -31
-23 -33 -17 -2 6 24 175 57 374 33 200 112 676 176 1058 64 382 143 855 176
1050 33 195 64 376 68 403 l8 47 -58 0 c-32 0 -60 -4 -63 -8 -3 -5 -8 -35 -11
-68 -8 -84 -27 -164 -38 -164 -5 0 -7 -20 -6 -44 2 -24 0 -42 -4 -39 -4 3 -7
-6 -6 -19 5 -54 -1 -88 -16 -88 -11 0 -15 -12 -15 -50 0 -27 -4 -50 -8 -50 -5
0 -14 -39 -21 -87 -6 -49 -14 -97 -16 -108 -32 -149 -42 -185 -51 -185 -15 0
-23 -55 -17 -114 4 -36 3 -47 -6 -42 -16 10 -26 -21 -11 -39 10 -12 9 -18 -8
-32 -11 -10 -23 -29 -27 -43 -4 -17 -3 -21 3 -11 6 8 12 9 16 3 3 -6 -1 -17
-9 -25 -8 -9 -12 -23 -9 -31 3 -9 1 -16 -5 -16 -15 0 -14 -37 2 -43 7 -3 5 -6
-5 -6 -10 -1 -20 -11 -23 -23 -18 -78 -65 -347 -70 -399 -3 -34 -10 -69 -14
-78 -5 -9 -11 -39 -13 -66 -2 -28 -8 -56 -12 -64 -5 -7 -10 -32 -12 -55 -7
-81 -12 -122 -24 -171 -24 -106 -30 -133 -49 -240 -12 -60 -23 -121 -25 -135
-2 -14 -14 -74 -25 -133 -12 -60 -19 -113 -16 -117 3 -5 1 -11 -5 -15 -5 -3
-10 -15 -10 -26 0 -10 -4 -19 -9 -19 -5 0 -9 -10 -9 -22 -2 -68 -5 -78 -23
-78 -11 0 -19 7 -19 15 0 21 21 155 85 535 86 511 331 1943 366 2140 11 63 26
148 33 188 l12 72 -42 0 c-38 0 -43 -3 -54 -32 -13 -39 -24 -116 -25 -174 0
-28 -4 -40 -12 -37 -7 3 -14 -9 -19 -31 -3 -20 -9 -36 -13 -36 -3 0 -6 -28 -7
-63 0 -35 -11 -95 -24 -137 -13 -41 -23 -79 -21 -84 1 -4 -5 -19 -14 -32 -9
-14 -15 -39 -14 -57 5 -63 -1 -123 -10 -108 -12 18 -17 4 -20 -54 -2 -27 -8
-53 -13 -56 -7 -4 -8 -23 -4 -48 5 -33 3 -44 -12 -57 -15 -12 -18 -27 -16 -67
3 -50 2 -50 -5 -12 l-8 40 -3 -35 c-1 -19 -2 -43 -1 -52 2 -11 -5 -18 -15 -18
-11 0 -15 -6 -11 -17 9 -32 9 -38 8 -63 -1 -21 -3 -22 -12 -10 -8 11 -9 0 -5
-42 4 -32 2 -59 -4 -63 -5 -3 -6 -13 -3 -23 5 -14 3 -13 -9 2 -15 19 -15 18
-15 -10 1 -16 -4 -45 -11 -64 -6 -19 -11 -46 -11 -60 0 -24 -9 -77 -30 -165
-22 -90 -43 -200 -71 -374 -17 -101 -33 -188 -36 -193 -3 -5 -8 -23 -10 -41
-10 -76 -42 -248 -74 -397 -7 -30 -13 -69 -13 -87 0 -18 -4 -30 -9 -27 -4 3
-5 -1 -2 -9 3 -8 1 -18 -5 -21 -6 -4 -7 -14 -4 -23 4 -11 3 -14 -5 -9 -7 4
-12 1 -12 -8 0 -8 -3 -22 -7 -32 -5 -13 -3 -15 7 -9 10 6 12 4 7 -9 -4 -10 -7
-25 -8 -34 0 -10 -6 -6 -13 12 -7 16 -11 47 -9 70 7 62 18 134 118 716 30 179
84 497 120 707 58 344 185 1065 234 1331 l18 102 -47 0 c-43 0 -49 -3 -58 -27
-6 -16 -11 -44 -11 -63 0 -61 -2 -69 -15 -64 -10 4 -12 -5 -9 -35 3 -23 1 -41
-4 -41 -9 0 -10 -6 -13 -77 -1 -24 -6 -40 -11 -37 -5 3 -9 -9 -9 -26 0 -17 -3
-29 -7 -27 -5 3 -9 -27 -10 -65 -1 -39 -6 -75 -12 -81 -6 -6 -12 -36 -13 -66
l-1 -56 -7 45 c-7 45 -7 44 -10 -20 -1 -36 -4 -57 -7 -47 -2 9 -8 17 -13 17
-5 0 -4 -16 2 -36 7 -27 6 -39 -3 -48 -9 -8 -10 -6 -6 12 3 12 1 22 -5 22 -6
0 -7 -16 -3 -41 5 -29 4 -40 -4 -35 -6 4 -11 2 -11 -3 0 -6 5 -11 10 -11 6 0
10 -9 10 -20 0 -12 -5 -17 -14 -14 -10 4 -18 -22 -35 -113 -11 -65 -22 -131
-23 -148 -1 -16 -7 -36 -12 -43 -7 -9 -5 -16 4 -22 11 -7 10 -11 -4 -26 -11
-10 -16 -27 -13 -41 2 -13 1 -26 -4 -28 -4 -3 -11 -27 -14 -53 -4 -26 -22
-123 -40 -217 -18 -93 -40 -208 -49 -255 -8 -47 -20 -110 -26 -140 -6 -30 -15
-82 -20 -115 -5 -33 -17 -96 -26 -140 -23 -114 -32 -164 -54 -295 -35 -208
-41 -235 -51 -254 -8 -14 -8 -16 3 -10 10 6 10 4 -1 -9 -13 -16 -15 -16 -27 2
-12 16 -11 36 6 127 10 60 40 231 65 379 63 370 182 1055 250 1435 31 173 63
353 71 400 23 128 63 351 70 383 5 26 4 27 -36 27 -46 0 -73 -20 -63 -46 4
-11 2 -15 -4 -11 -11 7 -36 -150 -26 -166 3 -4 -3 -24 -12 -44 -9 -19 -20 -62
-22 -94 -3 -32 -9 -56 -14 -53 -4 2 -11 -24 -15 -58 -4 -39 -10 -56 -14 -44
-8 23 -25 -30 -40 -129 -6 -38 -13 -83 -16 -100 -3 -16 -8 -50 -10 -75 -3 -25
-15 -83 -25 -130 -29 -126 -30 -131 -35 -178 -2 -24 -12 -78 -23 -120 -11 -42
-27 -124 -36 -181 -9 -58 -18 -107 -20 -111 -2 -3 -6 -24 -9 -46 -2 -21 -14
-79 -25 -129 -11 -49 -22 -108 -25 -130 -3 -22 -17 -101 -32 -175 -14 -74 -33
-175 -40 -224 -8 -49 -26 -141 -40 -205 -14 -64 -30 -147 -35 -186 -5 -38 -15
-82 -21 -98 -6 -15 -10 -38 -10 -52 0 -14 -4 -28 -9 -31 -5 -3 -9 -20 -9 -38
0 -19 -7 -39 -15 -46 -12 -10 -15 -10 -15 1 0 20 73 450 139 819 12 63 28 158
36 210 17 101 36 208 139 790 85 473 176 995 183 1043 l6 37 -44 0 c-39 0 -46
-3 -57 -29 -7 -17 -15 -51 -18 -76 -2 -26 -7 -52 -10 -57 -4 -7 -2 -8 4 -4 7
4 12 3 12 -2 0 -6 -7 -12 -15 -16 -8 -3 -15 -14 -15 -25 0 -11 -4 -21 -9 -23
-5 -1 -11 -34 -15 -72 -3 -38 -11 -75 -17 -82 -6 -7 -8 -23 -4 -35 4 -13 2
-24 -5 -29 -7 -4 -14 -42 -17 -91 -2 -46 -9 -93 -14 -105 -6 -11 -9 -24 -8
-30 1 -5 -3 -22 -9 -37 -7 -16 -12 -38 -12 -50 0 -12 -9 -62 -20 -112 -24
-107 -72 -356 -105 -545 -13 -74 -44 -236 -68 -360 -25 -124 -49 -247 -52
-275 -4 -27 -19 -104 -33 -170 -13 -66 -25 -129 -25 -140 1 -11 -4 -35 -9 -53
-9 -29 -24 -113 -31 -167 -5 -34 -39 -179 -48 -200 -4 -11 -11 -46 -14 -77 -4
-32 -11 -58 -16 -58 -21 0 -26 -33 212 1305 38 215 75 426 83 470 8 44 26 145
40 225 48 270 156 875 161 898 5 20 2 22 -39 22 -38 0 -44 -3 -39 -16 3 -9 1
-19 -6 -23 -7 -4 -14 -25 -16 -47 -4 -41 -11 -75 -19 -102 -3 -10 -8 -31 -10
-47 -2 -17 -13 -77 -25 -135 -11 -58 -25 -130 -30 -160 -6 -30 -14 -75 -20
-100 -5 -25 -12 -58 -15 -75 -3 -16 -10 -50 -15 -75 -14 -68 -47 -243 -66
-350 -9 -52 -23 -126 -31 -165 -8 -38 -16 -86 -19 -105 -14 -88 -27 -157 -35
-185 -5 -16 -12 -46 -15 -65 -6 -38 -19 -105 -66 -345 -17 -88 -42 -221 -54
-295 -13 -74 -26 -146 -29 -160 -3 -14 -17 -77 -31 -140 -13 -63 -29 -129 -34
-147 -5 -18 -11 -49 -12 -70 -2 -21 -9 -44 -16 -51 -7 -7 -13 -29 -13 -47 0
-19 -5 -37 -10 -40 -13 -8 -2 70 15 105 6 14 10 32 8 41 -2 9 7 79 21 155 14
77 52 292 86 479 34 187 65 363 70 390 5 28 22 124 39 215 16 91 46 255 65
365 59 338 202 1129 213 1173 4 18 1 22 -21 22 -16 0 -26 -6 -26 -15 0 -21
-20 -19 -21 3 0 12 -3 10 -10 -8 -7 -17 -7 -26 0 -28 6 -2 11 -8 11 -13 0 -4
-7 -6 -16 -2 -13 5 -15 0 -13 -23 2 -16 -3 -40 -10 -53 -7 -12 -11 -32 -8 -42
3 -10 2 -21 -3 -24 -6 -4 -16 -46 -26 -115 -1 -8 -14 -78 -28 -155 -15 -77
-29 -156 -32 -175 -3 -19 -7 -36 -9 -39 -3 -2 0 -10 6 -18 7 -8 8 -13 1 -13
-5 0 -12 -12 -15 -27 -3 -16 -12 -55 -20 -88 -8 -33 -27 -125 -42 -205 -14
-80 -33 -180 -41 -223 -9 -42 -18 -90 -20 -105 -3 -15 -20 -103 -39 -197 -79
-387 -105 -525 -105 -555 0 -14 -4 -30 -9 -36 -8 -9 -34 -141 -47 -239 -4 -27
-9 -54 -12 -60 -4 -5 -8 -19 -9 -30 -10 -72 -47 -263 -54 -277 -5 -10 -9 -28
-9 -41 0 -13 -6 -29 -12 -36 -10 -11 -10 -14 -1 -18 10 -3 9 -8 -3 -20 -8 -8
-18 -12 -22 -8 -4 4 -2 10 5 12 7 2 10 10 7 18 -6 15 24 195 96 580 58 307
110 592 140 765 12 69 50 285 85 480 35 195 75 423 90 505 14 83 39 222 55
310 43 228 42 215 25 215 -8 0 -15 -6 -15 -12 0 -10 -3 -10 -9 0 -5 9 -10 -7
-13 -44z m1082 -3 c0 -6 -4 -13 -10 -16 -5 -3 -10 1 -10 9 0 9 5 16 10 16 6 0
10 -4 10 -9z m477 -83 c-3 -8 -6 -5 -6 6 -1 11 2 17 5 13 3 -3 4 -12 1 -19z
m-1170 -120 c-3 -8 -6 -5 -6 6 -1 11 2 17 5 13 3 -3 4 -12 1 -19z m-310 -30
c-3 -8 -6 -5 -6 6 -1 11 2 17 5 13 3 -3 4 -12 1 -19z m-117 -28 c0 -5 -2 -10
-4 -10 -3 0 -8 5 -11 10 -3 6 -1 10 4 10 6 0 11 -4 11 -10z m17 -502 c-3 -8
-6 -5 -6 6 -1 11 2 17 5 13 3 -3 4 -12 1 -19z m656 -149 c-8 -29 -13 -23 -13
14 0 22 3 28 9 18 5 -7 6 -22 4 -32z m936 -484 c0 -5 -4 -3 -9 5 -5 8 -9 22
-9 30 0 16 17 -16 18 -35z m-1292 -1340 c0 -8 -4 -15 -9 -15 -4 0 -8 7 -8 15
0 8 4 15 8 15 5 0 9 -7 9 -15z m-727 -109 c0 -3 -4 -8 -10 -11 -5 -3 -10 -1
-10 4 0 6 5 11 10 11 6 0 10 -2 10 -4z m480 -26 c0 -5 -5 -10 -11 -10 -5 0 -7
5 -4 10 3 6 8 10 11 10 2 0 4 -4 4 -10z m1064 -25 c-4 -8 -8 -15 -10 -15 -2 0
-4 7 -4 15 0 8 4 15 10 15 5 0 7 -7 4 -15z m-1264 -50 c0 -25 -3 -45 -8 -45
-4 0 -6 20 -4 45 2 25 6 45 8 45 2 0 4 -20 4 -45z m197 13 c-3 -8 -6 -5 -6 6
-1 11 2 17 5 13 3 -3 4 -12 1 -19z m1692 -13 c16 -28 18 -35 5 -35 -13 0 -34
37 -34 61 0 16 8 10 29 -26z m-171 -32 c-5 -32 -13 -77 -17 -100 -5 -27 -4
-46 3 -53 6 -6 11 -24 11 -40 0 -26 -4 -30 -27 -30 -25 0 -28 4 -28 34 0 46
28 204 41 227 18 35 26 19 17 -38z m-1718 -48 c0 -14 -4 -25 -9 -25 -4 0 -6
11 -3 25 2 14 6 25 8 25 2 0 4 -11 4 -25z m1898 -7 c-2 -6 -10 -14 -16 -16 -7
-2 -10 2 -6 12 7 18 28 22 22 4z m-2077 -31 c-10 -9 -11 -8 -5 6 3 10 9 15 12
12 3 -3 0 -11 -7 -18z m647 -534 c-10 -2 -28 -2 -40 0 -13 2 -5 4 17 4 22 1
32 -1 23 -4z m125 -10 c-13 -2 -35 -2 -50 0 -16 2 -5 4 22 4 28 0 40 -2 28 -4z
m130 -10 c-13 -2 -35 -2 -50 0 -16 2 -5 4 22 4 28 0 40 -2 28 -4z m130 -10
c-13 -2 -33 -2 -45 0 -13 2 -3 4 22 4 25 0 35 -2 23 -4z m95 -10 c-10 -2 -28
-2 -40 0 -13 2 -5 4 17 4 22 1 32 -1 23 -4z m130 -10 c-10 -2 -26 -2 -35 0
-10 3 -2 5 17 5 19 0 27 -2 18 -5z m110 -10 c-10 -2 -28 -2 -40 0 -13 2 -5 4
17 4 22 1 32 -1 23 -4z m125 -10 c-13 -2 -33 -2 -45 0 -13 2 -3 4 22 4 25 0
35 -2 23 -4z m105 -10 c-10 -2 -28 -2 -40 0 -13 2 -5 4 17 4 22 1 32 -1 23 -4z
m135 -10 c-13 -2 -35 -2 -50 0 -16 2 -5 4 22 4 28 0 40 -2 28 -4z m100 -10
c-7 -2 -19 -2 -25 0 -7 3 -2 5 12 5 14 0 19 -2 13 -5z m-1516 -70 c-2 -16 -4
-5 -4 22 0 28 2 40 4 28 2 -13 2 -35 0 -50z m54 24 c-14 -15 -21 -17 -21 -8 0
21 33 56 38 41 3 -7 -5 -22 -17 -33z m-102 -63 c11 13 11 20 3 28 -7 7 -12 17
-12 22 0 6 7 0 16 -12 21 -30 10 -64 -19 -60 -17 2 -22 9 -21 33 3 68 8 77 13
26 5 -49 8 -52 20 -37z m435 49 c19 -104 15 -128 -20 -121 -16 3 -19 14 -22
76 -3 66 -1 72 17 72 13 0 21 -9 25 -27z m56 -27 c0 -25 -4 -48 -10 -51 -6 -4
-10 13 -10 44 0 28 5 51 10 51 6 0 10 -20 10 -44z m75 14 c-4 -6 -13 -9 -20
-6 -11 4 -14 -7 -13 -45 0 -39 3 -49 14 -45 16 6 18 -3 5 -23 -8 -12 -12 -13
-26 -1 -12 10 -15 27 -13 64 3 42 7 53 28 63 27 13 36 11 25 -7z m315 -46 c0
-20 4 -33 10 -29 5 3 7 19 3 35 -3 19 -1 30 6 30 6 0 11 -1 11 -2 7 -39 10
-116 5 -135 -4 -19 -11 -24 -25 -20 -22 6 -26 -9 -10 -33 6 -10 10 -11 10 -2
0 6 4 12 9 12 4 0 8 -13 7 -29 -1 -18 -5 -27 -13 -24 -7 3 -10 10 -6 17 3 6 1
6 -8 -1 -7 -7 -16 -13 -20 -13 -9 0 -11 153 -3 198 8 43 24 41 24 -4z m740
-11 c0 -22 6 -41 17 -48 25 -18 9 -45 -27 -45 l-30 0 0 64 c0 42 4 66 13 69
20 7 27 -2 27 -40z m115 37 c3 -6 17 -7 31 -4 16 4 24 2 24 -6 0 -10 3 -10 15
0 12 10 19 10 27 2 9 -9 8 -24 -3 -59 -24 -78 -68 -68 -69 15 0 36 -15 25 -29
-23 -7 -25 -19 -45 -26 -45 -7 0 -24 19 -38 42 -28 47 -22 80 12 71 10 -3 22
0 25 6 9 14 23 14 31 1z m-1626 -26 c7 5 9 1 5 -9 -8 -21 -28 -14 -32 11 -2
15 -1 16 6 5 6 -7 15 -11 21 -7z m927 -15 c-14 -11 -26 -29 -26 -39 0 -10 -4
-22 -10 -25 -6 -4 -10 5 -10 19 0 29 32 66 56 66 12 0 10 -6 -10 -21z m-466 2
c0 -6 -4 -13 -10 -16 -5 -3 -10 1 -10 9 0 9 5 16 10 16 6 0 10 -4 10 -9z m400
-26 c0 -23 -5 -35 -14 -35 -15 0 -16 36 -2 58 12 20 16 14 16 -23z m150 7 c0
-10 -5 -23 -12 -30 -9 -9 -7 -16 6 -31 13 -14 14 -21 5 -27 -13 -7 -39 21 -39
42 0 23 19 64 30 64 5 0 10 -8 10 -18z m-1140 -21 c0 -11 -4 -23 -10 -26 -6
-4 -10 5 -10 19 0 14 5 26 10 26 6 0 10 -9 10 -19z m36 -3 c-9 -5 -14 -13 -11
-19 4 -5 1 -9 -5 -9 -13 0 -9 32 5 42 5 4 13 4 18 1 5 -3 2 -10 -7 -15z m474
-3 c0 -8 -4 -15 -10 -15 -5 0 -10 7 -10 15 0 8 5 15 10 15 6 0 10 -7 10 -15z
m-380 -5 c13 -9 13 -11 0 -20 -21 -14 -40 -12 -40 3 0 26 16 33 40 17z m954
-17 c-8 -35 -10 -37 -23 -28 -7 4 -5 14 5 31 21 31 26 30 18 -3z m-1012 -5
c-7 -7 -12 -8 -12 -2 0 14 12 26 19 19 2 -3 -1 -11 -7 -17z m400 -20 c-7 -7
-12 -8 -12 -2 0 14 12 26 19 19 2 -3 -1 -11 -7 -17z m708 2 c0 -5 -4 -10 -10
-10 -5 0 -10 5 -10 10 0 6 5 10 10 10 6 0 10 -4 10 -10z m-763 -22 c-3 -8 -6
-5 -6 6 -1 11 2 17 5 13 3 -3 4 -12 1 -19z m93 -4 c0 -14 -4 -23 -9 -20 -5 3
-7 15 -4 26 7 28 13 25 13 -6z m55 6 c10 -11 14 -21 9 -21 -46 -7 -54 -5 -54
11 0 34 19 39 45 10z m417 5 c0 -5 -5 -11 -11 -13 -6 -2 -11 4 -11 13 0 9 5
15 11 13 6 -2 11 -8 11 -13z m258 -90 c0 -33 4 -45 15 -45 8 0 15 -9 15 -20 0
-16 -7 -20 -35 -20 l-35 0 0 53 c0 49 12 77 32 77 4 0 8 -20 8 -45z m133 31
c3 -7 -6 -38 -19 -67 l-25 -53 -31 47 c-25 39 -28 50 -18 62 7 9 21 13 31 10
9 -3 20 -1 24 5 9 14 32 12 38 -4z m44 -6 c5 -19 6 -19 19 -3 20 29 36 5 24
-38 -14 -51 -35 -77 -51 -62 -17 17 -25 123 -9 123 6 0 14 -9 17 -20z m138 10
c3 -5 0 -18 -7 -30 -10 -16 -10 -24 0 -40 17 -27 8 -40 -29 -40 -29 0 -29 0
-29 60 0 60 0 60 29 60 17 0 32 -4 36 -10z m-1595 -45 c0 -25 -4 -45 -10 -45
-11 0 -13 33 -4 68 10 34 14 27 14 -23z m70 21 c0 -7 -9 -16 -20 -19 -19 -5
-28 12 -13 26 11 12 33 7 33 -7z m267 -63 c-3 -10 -5 -4 -5 12 0 17 2 24 5 18
2 -7 2 -21 0 -30z m30 15 c-3 -8 -6 -5 -6 6 -1 11 2 17 5 13 3 -3 4 -12 1 -19z
m63 -35 c0 -13 -4 -23 -10 -23 -5 0 -9 16 -8 35 1 39 18 27 18 -12z m-382 -5
c14 2 15 -8 3 -26 -11 -18 -26 4 -28 43 -2 29 -2 29 6 5 4 -14 13 -24 19 -22z
m445 3 c-27 -21 -35 -68 -16 -87 9 -8 13 -18 9 -21 -23 -23 -45 74 -27 120 10
25 13 27 33 16 l21 -11 -20 -17z m74 -33 c-2 -13 -4 -5 -4 17 -1 22 1 32 4 23
2 -10 2 -28 0 -40z m43 -10 c0 -23 -3 -38 -7 -34 -11 10 -12 87 -2 80 5 -3 9
-24 9 -46z m46 -46 c-11 -10 -12 3 -7 53 l6 50 3 -49 c2 -26 1 -51 -2 -54z
m54 33 c-5 -6 -10 -27 -12 -47 -1 -20 -6 -34 -10 -32 -12 7 -10 62 2 69 6 4 8
11 5 16 -4 5 -3 14 1 20 4 8 9 7 15 -2 4 -7 4 -18 -1 -24z m91 -68 c-8 -8 -11
2 -11 34 0 59 14 73 18 19 2 -24 -2 -48 -7 -53z m43 67 c3 -9 6 -23 6 -32 0
-13 -3 -12 -15 4 -16 21 -19 44 -6 44 5 0 12 -7 15 -16z m836 -41 c0 -20 7
-41 15 -47 19 -14 7 -33 -25 -37 -23 -4 -25 0 -28 37 -3 46 13 98 28 89 5 -3
10 -22 10 -42z m-1113 5 c-3 -7 -5 -2 -5 12 0 14 2 19 5 13 2 -7 2 -19 0 -25z
m1283 16 c0 -12 4 -12 20 -2 30 19 33 5 14 -56 -24 -75 -47 -77 -61 -3 l-9 52
-24 -47 c-13 -27 -27 -48 -30 -48 -3 0 -16 20 -29 44 -25 46 -21 71 10 63 10
-3 21 -1 24 3 9 15 85 9 85 -6z m-1433 -16 c-3 -8 -6 -5 -6 6 -1 11 2 17 5 13
3 -3 4 -12 1 -19z m513 -34 c0 -37 -3 -44 -20 -44 -11 0 -20 7 -20 16 0 8 5
12 10 9 7 -4 9 6 7 29 -4 37 0 49 14 40 5 -3 9 -25 9 -50z m497 43 c3 -4 13
-1 21 5 11 10 17 9 27 -5 11 -15 14 -16 25 -2 8 10 30 15 61 15 l49 0 0 -59 0
-58 -52 -7 c-45 -5 -55 -3 -70 14 -20 25 -24 25 -31 -1 -7 -26 -41 -22 -45 6
-7 47 -13 65 -22 65 -11 0 -14 -33 -3 -44 17 -17 9 -34 -19 -40 -37 -7 -48 -1
-48 25 0 28 -23 19 -30 -12 -3 -13 -12 -24 -20 -24 -11 0 -16 16 -18 63 l-3
62 46 -2 c25 0 48 2 52 5 8 8 70 3 80 -6z m-807 -17 c0 -5 -5 -10 -11 -10 -5
0 -7 5 -4 10 3 6 8 10 11 10 2 0 4 -4 4 -10z m-150 -39 c0 -5 8 -12 18 -14 10
-3 6 -5 -10 -6 -19 -1 -28 4 -28 14 0 8 5 15 10 15 6 0 10 -4 10 -9z m401 -24
c-13 -13 -26 -3 -16 12 3 6 11 8 17 5 6 -4 6 -10 -1 -17z m735 -88 c3 -6 0
-22 -7 -37 -11 -20 -11 -26 -1 -29 6 -3 12 -16 12 -29 0 -21 -5 -24 -34 -24
-34 0 -35 0 -42 56 -5 43 -3 58 7 65 20 12 57 11 65 -2z m-311 -20 c4 -11 4
-31 1 -45 -5 -17 -2 -24 9 -24 9 0 15 -9 15 -24 0 -19 -6 -25 -30 -28 -38 -6
-41 0 -46 72 -3 59 -1 62 38 69 4 0 10 -8 13 -20z m218 12 c21 -3 -9 -108 -36
-123 -24 -12 -32 -2 -42 56 l-7 41 -20 -47 c-11 -27 -26 -48 -32 -48 -6 0 -22
20 -35 44 -27 49 -23 81 9 73 11 -3 22 -1 25 4 5 7 86 7 138 0z m-733 -41 c0
-33 -3 -40 -20 -40 -11 0 -20 7 -20 15 0 8 7 15 16 15 8 0 13 4 10 9 -6 9 2
41 10 41 2 0 4 -18 4 -40z m-280 -7 c0 -21 -3 -24 -9 -14 -5 8 -7 20 -4 28 8
21 13 15 13 -14z m616 -10 c12 -16 13 -16 14 -1 0 11 6 15 20 11 23 -6 26 -19
6 -30 -16 -9 -16 -9 -16 -54 0 -19 -4 -28 -11 -23 -7 4 -9 21 -6 41 6 35 6 35
-13 18 -11 -10 -20 -26 -20 -37 0 -10 -4 -18 -10 -18 -5 0 -10 25 -10 55 0 44
3 55 16 55 9 0 23 -8 30 -17z m78 -18 c3 -8 1 -15 -4 -15 -6 0 -10 7 -10 15 0
8 2 15 4 15 2 0 6 -7 10 -15z m26 -27 c0 -36 -15 -67 -26 -55 -4 4 -2 13 4 19
7 7 12 25 12 40 0 15 2 28 5 28 3 0 5 -15 5 -32z m575 -97 c3 -5 1 -12 -4 -15
-5 -3 -11 1 -15 9 -6 16 9 21 19 6z m-390 -23 c-4 -20 -25 -50 -25 -36 0 12
19 58 24 58 3 0 3 -10 1 -22z m459 7 c-4 -8 -8 -15 -10 -15 -2 0 -4 7 -4 15 0
8 4 15 10 15 5 0 7 -7 4 -15z m-306 -2 c-10 -2 -18 -9 -18 -15 0 -6 -3 -9 -6
-5 -10 10 6 27 24 26 15 -1 15 -2 0 -6z m182 -3 c0 -5 -4 -10 -10 -10 -5 0
-10 5 -10 10 0 6 5 10 10 10 6 0 10 -4 10 -10z m-390 -10 c0 -5 -2 -10 -4 -10
-3 0 -8 5 -11 10 -3 6 -1 10 4 10 6 0 11 -4 11 -10z m116 -56 c-3 -8 -11 -14
-18 -13 -10 0 -10 2 0 6 6 2 13 21 13 41 2 32 3 33 6 9 3 -16 2 -35 -1 -43z
m321 34 c2 -17 0 -19 -7 -8 -5 8 -6 18 -4 22 8 12 10 10 11 -14z m-537 2 c0
-5 -4 -10 -10 -10 -5 0 -10 5 -10 10 0 6 5 10 10 10 6 0 10 -4 10 -10z m155
-19 c-3 -6 2 -14 11 -19 15 -8 15 -10 0 -15 -10 -4 -14 -3 -11 2 3 5 1 12 -5
16 -10 6 -5 25 6 25 3 0 3 -4 -1 -9z m331 -28 c-10 -10 -19 5 -10 18 6 11 8
11 12 0 2 -7 1 -15 -2 -18z m-386 2 c0 -8 -4 -15 -10 -15 -5 0 -10 7 -10 15 0
8 5 15 10 15 6 0 10 -7 10 -15z m190 11 c0 -3 -4 -8 -10 -11 -5 -3 -10 -1 -10
4 0 6 5 11 10 11 6 0 10 -2 10 -4z m-45 -46 c9 -14 49 -12 64 3 10 10 11 9 6
-5 -7 -17 -19 -23 -40 -18 -5 1 -25 2 -43 2 -27 0 -31 2 -21 14 14 16 25 18
34 4z m-248 -42 c-3 -8 -6 -5 -6 6 -1 11 2 17 5 13 3 -3 4 -12 1 -19z m565
-10 c-7 -7 -12 -8 -12 -2 0 14 12 26 19 19 2 -3 -1 -11 -7 -17z m-385 -10 c-3
-8 -6 -5 -6 6 -1 11 2 17 5 13 3 -3 4 -12 1 -19z m463 12 c0 -5 -4 -10 -10
-10 -5 0 -10 5 -10 10 0 6 5 10 10 10 6 0 10 -4 10 -10z m-264 -53 c4 -4 -20
-7 -54 -7 -33 0 -63 3 -65 8 -6 9 110 9 119 -1z m64 9 c0 -2 -7 -7 -16 -10 -8
-3 -12 -2 -9 4 6 10 25 14 25 6z m73 -3 c-7 -2 -19 -2 -25 0 -7 3 -2 5 12 5
14 0 19 -2 13 -5z m44 1 c-3 -3 -12 -4 -19 -1 -8 3 -5 6 6 6 11 1 17 -2 13 -5z
m-560 -26 c-3 -8 -6 -5 -6 6 -1 11 2 17 5 13 3 -3 4 -12 1 -19z m206 15 c-7
-2 -19 -2 -25 0 -7 3 -2 5 12 5 14 0 19 -2 13 -5z"/>
<path d="M6240 1658 c0 -51 12 -89 23 -72 2 5 4 32 2 59 -3 65 -3 65 -15 65
-5 0 -10 -24 -10 -52z"/>
<path d="M6720 1555 c0 -15 4 -24 10 -20 6 3 10 12 10 20 0 8 -4 17 -10 20 -6
4 -10 -5 -10 -20z"/>
<path d="M7305 1218 l-20 -20 25 4 c14 2 26 11 28 21 4 22 -8 21 -33 -5z"/>
<path d="M6872 1020 c0 -14 2 -19 5 -12 2 6 2 18 0 25 -3 6 -5 1 -5 -13z"/>
<path d="M5051 5474 c0 -11 3 -14 6 -6 3 7 2 16 -1 19 -3 4 -6 -2 -5 -13z"/>
<path d="M5092 5450 c0 -14 2 -19 5 -12 2 6 2 18 0 25 -3 6 -5 1 -5 -13z"/>
<path d="M5041 5424 c0 -11 3 -14 6 -6 3 7 2 16 -1 19 -3 4 -6 -2 -5 -13z"/>
<path d="M4505 5410 c-3 -5 1 -10 9 -10 9 0 16 5 16 10 0 6 -4 10 -9 10 -6 0
-13 -4 -16 -10z"/>
<path d="M5060 5300 c-12 -67 -20 -123 -18 -126 3 -2 15 51 27 117 12 67 20
123 18 125 -2 3 -14 -50 -27 -116z"/>
<path d="M6682 5370 c0 -19 2 -27 5 -17 2 9 2 25 0 35 -3 9 -5 1 -5 -18z"/>
<path d="M5031 5374 c0 -11 3 -14 6 -6 3 7 2 16 -1 19 -3 4 -6 -2 -5 -13z"/>
<path d="M5022 5320 c0 -14 2 -19 5 -12 2 6 2 18 0 25 -3 6 -5 1 -5 -13z"/>
<path d="M6482 5290 c0 -14 2 -19 5 -12 2 6 2 18 0 25 -3 6 -5 1 -5 -13z"/>
<path d="M5011 5274 c0 -11 3 -14 6 -6 3 7 2 16 -1 19 -3 4 -6 -2 -5 -13z"/>
<path d="M5002 5220 c0 -14 2 -19 5 -12 2 6 2 18 0 25 -3 6 -5 1 -5 -13z"/>
<path d="M4992 5170 c0 -14 2 -19 5 -12 2 6 2 18 0 25 -3 6 -5 1 -5 -13z"/>
<path d="M6635 5140 c-4 -23 -5 -43 -2 -46 2 -3 7 14 11 37 4 23 5 44 2 46 -2
2 -7 -14 -11 -37z"/>
<path d="M5025 5115 c-3 -26 -4 -49 -2 -51 3 -3 8 16 12 41 3 26 4 49 2 51 -3
3 -8 -16 -12 -41z"/>
<path d="M6437 5121 c-4 -17 -3 -21 5 -13 5 5 8 16 6 23 -3 8 -7 3 -11 -10z"/>
<path d="M4981 5114 c0 -11 3 -14 6 -6 3 7 2 16 -1 19 -3 4 -6 -2 -5 -13z"/>
<path d="M4972 5070 c0 -14 2 -19 5 -12 2 6 2 18 0 25 -3 6 -5 1 -5 -13z"/>
<path d="M6881 5064 c0 -11 3 -14 6 -6 3 7 2 16 -1 19 -3 4 -6 -2 -5 -13z"/>
<path d="M4961 5014 c0 -11 3 -14 6 -6 3 7 2 16 -1 19 -3 4 -6 -2 -5 -13z"/>
<path d="M6612 4980 c0 -14 2 -19 5 -12 2 6 2 18 0 25 -3 6 -5 1 -5 -13z"/>
<path d="M4270 4970 c0 -5 5 -10 11 -10 5 0 7 5 4 10 -3 6 -8 10 -11 10 -2 0
-4 -4 -4 -10z"/>
<path d="M4952 4960 c0 -14 2 -19 5 -12 2 6 2 18 0 25 -3 6 -5 1 -5 -13z"/>
<path d="M4941 4914 c0 -11 3 -14 6 -6 3 7 2 16 -1 19 -3 4 -6 -2 -5 -13z"/>
<path d="M4901 4894 c0 -11 3 -14 6 -6 3 7 2 16 -1 19 -3 4 -6 -2 -5 -13z"/>
<path d="M6591 4884 c0 -11 3 -14 6 -6 3 7 2 16 -1 19 -3 4 -6 -2 -5 -13z"/>
<path d="M4931 4854 c0 -11 3 -14 6 -6 3 7 2 16 -1 19 -3 4 -6 -2 -5 -13z"/>
<path d="M4921 4804 c0 -11 3 -14 6 -6 3 7 2 16 -1 19 -3 4 -6 -2 -5 -13z"/>
<path d="M4911 4754 c0 -11 3 -14 6 -6 3 7 2 16 -1 19 -3 4 -6 -2 -5 -13z"/>
<path d="M4871 4744 c0 -11 3 -14 6 -6 3 7 2 16 -1 19 -3 4 -6 -2 -5 -13z"/>
<path d="M7010 4693 c0 -28 3 -34 10 -23 13 20 13 60 0 60 -5 0 -10 -17 -10
-37z"/>
<path d="M4902 4700 c0 -14 2 -19 5 -12 2 6 2 18 0 25 -3 6 -5 1 -5 -13z"/>
<path d="M4861 4694 c0 -11 3 -14 6 -6 3 7 2 16 -1 19 -3 4 -6 -2 -5 -13z"/>
<path d="M4892 4640 c0 -14 2 -19 5 -12 2 6 2 18 0 25 -3 6 -5 1 -5 -13z"/>
<path d="M4875 4570 c-4 -23 -5 -43 -2 -46 2 -3 7 14 11 37 4 23 5 44 2 46 -2
2 -7 -14 -11 -37z"/>
<path d="M4836 4368 c-14 -79 -35 -183 -46 -233 -11 -49 -38 -187 -60 -305
-51 -269 -130 -662 -136 -675 -6 -15 5 82 17 140 42 216 138 751 143 795 7 69
-23 -73 -114 -540 -39 -201 -72 -372 -74 -381 -3 -16 41 -46 51 -35 7 7 48
218 98 511 25 143 54 307 66 365 11 58 23 119 25 135 3 17 19 103 35 193 17
90 29 166 26 168 -2 2 -16 -60 -31 -138z"/>
<path d="M4821 4484 c0 -11 3 -14 6 -6 3 7 2 16 -1 19 -3 4 -6 -2 -5 -13z"/>
<path d="M4791 4324 c0 -11 3 -14 6 -6 3 7 2 16 -1 19 -3 4 -6 -2 -5 -13z"/>
<path d="M4782 4270 c0 -14 2 -19 5 -12 2 6 2 18 0 25 -3 6 -5 1 -5 -13z"/>
<path d="M4771 4224 c0 -11 3 -14 6 -6 3 7 2 16 -1 19 -3 4 -6 -2 -5 -13z"/>
<path d="M4762 4170 c0 -14 2 -19 5 -12 2 6 2 18 0 25 -3 6 -5 1 -5 -13z"/>
<path d="M4681 4033 c-1 -6 -4 -20 -7 -30 -5 -17 -5 -17 6 0 6 10 9 23 6 30
-3 9 -5 9 -5 0z"/>
<path d="M4696 3994 c-4 -20 -5 -38 -3 -40 3 -3 8 11 11 32 4 20 5 38 3 40 -3
3 -8 -11 -11 -32z"/>
<path d="M4672 3865 c-7 -35 -15 -72 -19 -81 -4 -11 -2 -15 4 -11 11 7 39 145
31 153 -3 2 -10 -25 -16 -61z"/>
<path d="M4647 3873 c-4 -3 -7 -17 -7 -29 0 -13 -5 -26 -10 -29 -6 -4 -8 -15
-5 -26 4 -10 3 -19 -2 -19 -4 0 -9 -21 -10 -46 -3 -72 13 -39 30 61 16 91 16
101 4 88z"/>
<path d="M4646 3743 c-3 -10 -10 -47 -16 -83 -14 -95 -48 -248 -49 -225 -1 11
8 67 19 124 11 58 18 107 15 109 -3 3 -5 -1 -6 -9 0 -8 -4 -6 -10 6 -7 15 -7
11 -3 -14 4 -21 2 -31 -4 -27 -6 3 -9 -10 -9 -32 0 -20 -1 -48 -3 -62 -2 -21
-4 -20 -10 10 l-7 35 -2 -37 c-1 -25 -6 -38 -15 -38 -13 0 -23 -38 -32 -125
-7 -69 -8 -75 -15 -75 -8 0 -10 -70 -2 -83 4 -6 10 -3 14 9 6 15 8 14 8 -10 1
-49 11 -24 32 85 11 56 22 105 24 108 9 9 5 -24 -19 -136 -13 -62 -20 -113
-15 -113 4 0 10 8 13 18 5 14 86 446 103 550 6 34 -2 44 -11 15z m-94 -364
c-9 -31 -10 -30 -7 16 5 61 6 66 12 39 2 -12 0 -37 -5 -55z m-25 -121 c-3 -8
-6 -5 -6 6 -1 11 2 17 5 13 3 -3 4 -12 1 -19z"/>
<path d="M4313 3206 c12 -18 24 -29 25 -24 5 11 -26 58 -38 58 -5 0 1 -15 13
-34z"/>
<path d="M4342 3106 c-3 -77 -27 -169 -62 -234 -33 -61 -11 -50 25 12 30 52
47 144 43 221 l-4 60 -2 -59z"/>
<path d="M4462 3120 c0 -14 2 -19 5 -12 2 6 2 18 0 25 -3 6 -5 1 -5 -13z"/>
<path d="M4472 3065 c0 -16 2 -22 5 -12 2 9 2 23 0 30 -3 6 -5 -1 -5 -18z"/>
<path d="M3898 2943 c7 -3 16 -2 19 1 4 3 -2 6 -13 5 -11 0 -14 -3 -6 -6z"/>
<path d="M5126 2622 c-3 -26 -7 -67 -10 -91 l-5 -44 16 29 c17 32 27 140 14
149 -5 3 -12 -16 -15 -43z"/>
<path d="M2923 2610 c-6 -14 -9 -38 -8 -55 2 -16 4 -37 4 -46 1 -9 12 -21 25
-27 21 -9 25 -8 30 11 9 36 7 70 -8 99 -10 18 -11 29 -3 37 7 7 4 10 -10 8
-11 0 -24 -12 -30 -27z"/>
<path d="M3933 2563 c9 -2 25 -2 35 0 9 3 1 5 -18 5 -19 0 -27 -2 -17 -5z"/>
<path d="M2796 2405 c-20 -31 -10 -77 17 -81 14 -2 16 5 12 48 -2 28 -6 52 -8
54 -2 3 -12 -7 -21 -21z"/>
<path d="M23 1933 c15 -2 37 -2 50 0 12 2 0 4 -28 4 -27 0 -38 -2 -22 -4z"/>
<path d="M1010 1690 c0 -5 17 -10 38 -9 30 0 33 2 17 9 -28 12 -55 12 -55 0z"/>
<path d="M7303 1604 c-17 -17 -16 -24 1 -24 19 0 27 13 18 27 -5 7 -11 7 -19
-3z"/>
<path d="M100 1439 c-84 -4 -67 -5 85 -6 188 -1 226 3 90 9 -38 2 -117 1 -175
-3z"/>
<path d="M4965 1320 c3 -5 8 -10 11 -10 2 0 4 5 4 10 0 6 -5 10 -11 10 -5 0
-7 -4 -4 -10z"/>
<path d="M5330 1310 c0 -5 5 -10 10 -10 6 0 10 5 10 10 0 6 -4 10 -10 10 -5 0
-10 -4 -10 -10z"/>
<path d="M5421 1234 c0 -11 3 -14 6 -6 3 7 2 16 -1 19 -3 4 -6 -2 -5 -13z"/>
<path d="M5041 1134 c0 -11 3 -14 6 -6 3 7 2 16 -1 19 -3 4 -6 -2 -5 -13z"/>
<path d="M7547 1051 c-3 -12 1 -22 9 -25 16 -6 18 12 5 32 -6 11 -9 9 -14 -7z"/>
<path d="M5503 783 c15 -2 39 -2 55 0 15 2 2 4 -28 4 -30 0 -43 -2 -27 -4z"/>
<path d="M6965 490 c-77 -4 -231 -11 -343 -15 -112 -4 -199 -11 -195 -15 4 -4
60 -19 123 -34 203 -47 223 -54 217 -77 -4 -15 1 -23 20 -30 66 -25 249 -52
438 -64 85 -5 434 -68 458 -82 4 -2 7 61 7 141 0 145 0 146 -22 146 -13 0
-120 9 -238 20 -225 21 -239 21 -465 10z"/>
<path d="M5560 429 c0 -5 5 -7 10 -4 6 3 10 8 10 11 0 2 -4 4 -10 4 -5 0 -10
-5 -10 -11z"/>
<path d="M5555 250 c3 -5 11 -10 16 -10 6 0 7 5 4 10 -3 6 -11 10 -16 10 -6 0
-7 -4 -4 -10z"/>
<path d="M2255 229 c-4 -6 -5 -12 -2 -15 2 -3 7 2 10 11 7 17 1 20 -8 4z"/>
<path d="M5689 208 c-2 -5 -7 -40 -12 -98 -3 -30 -8 -67 -12 -82 -4 -17 -3
-28 3 -28 5 0 12 15 16 33 11 53 19 177 12 177 -3 0 -7 -1 -7 -2z"/>
<path d="M5547 159 c7 -7 15 -10 18 -7 3 3 -2 9 -12 12 -14 6 -15 5 -6 -5z"/>
<path d="M2640 119 c0 -5 5 -7 10 -4 6 3 10 8 10 11 0 2 -4 4 -10 4 -5 0 -10
-5 -10 -11z"/>
<path d="M5630 30 c0 -5 5 -10 10 -10 6 0 10 5 10 10 0 6 -4 10 -10 10 -5 0
-10 -4 -10 -10z"/>
</g>
</svg>
