 <svg xmlns="http://www.w3.org/2000/svg" width="200" height="200" viewBox="0 0 200 200">
                            <rect x="20" y="20" width="160" height="140" rx="10" ry="10" fill="#212121" />
                            <rect x="40" y="40" width="120" height="80" rx="5" ry="5" fill="#FFF" />
                            <rect x="40" y="130" width="120" height="30" rx="5" ry="5" fill="#FFF" />
                            <circle cx="70" cy="170" r="6" fill="#FFF" />
                            <circle cx="100" cy="170" r="6" fill="#FFF" />
                            <circle cx="130" cy="170" r="6" fill="#FFF" />
                            <rect x="40" y="100" width="30" height="20" rx="2" ry="2" fill="#BBDEFB" />
                            <rect x="80" y="100" width="30" height="20" rx="2" ry="2" fill="#BBDEFB" />
                            <rect x="120" y="100" width="30" height="20" rx="2" ry="2" fill="#BBDEFB" />
                            <text x="58" y="115" fill="#212121" font-family="Arial, sans-serif" font-size="10px">DB</text>
                            <text x="98" y="115" fill="#212121" font-family="Arial, sans-serif" font-size="10px">DB</text>
                            <text x="138" y="115" fill="#212121" font-family="Arial, sans-serif" font-size="10px">DB</text>
                            <text x="80" y="150" fill="#FFF" font-family="Arial, sans-serif" font-size="10px">Server</text>
                            
                            <line x1="55" y1="47" x2="145" y2="47" stroke="#BBDEFB" stroke-width="1" />
                            <line x1="55" y1="53" x2="145" y2="53" stroke="#BBDEFB" stroke-width="1" />
                            <line x1="55" y1="59" x2="145" y2="59" stroke="#BBDEFB" stroke-width="1" />
                            
                            <line x1="55" y1="81" x2="145" y2="81" stroke="#BBDEFB" stroke-width="1" />
                            <line x1="55" y1="87" x2="145" y2="87" stroke="#BBDEFB" stroke-width="1" />
                            <line x1="55" y1="93" x2="145" y2="93" stroke="#BBDEFB" stroke-width="1" />
                            
                            <line x1="55" y1="152" x2="145" y2="152" stroke="#BBDEFB" stroke-width="1" />
                            <line x1="55" y1="158" x2="145" y2="158" stroke="#BBDEFB" stroke-width="1" />
                            <line x1="55" y1="164" x2="145" y2="164" stroke="#BBDEFB" stroke-width="1" />
                        </svg>
                          